<?xml version="1.0" standalone="no"?><!DOCTYPE svg PUBLIC "-//W3C//DTD SVG 1.1//EN" "http://www.w3.org/Graphics/SVG/1.1/DTD/svg11.dtd"><svg t="1521210047377" class="icon" style="" viewBox="0 0 1024 1024" version="1.1" xmlns="http://www.w3.org/2000/svg" p-id="2005" xmlns:xlink="http://www.w3.org/1999/xlink" width="200" height="200"><defs><style type="text/css"></style></defs><path d="M102.3 748.3c-5 0-9-4-9-9V127.9c0-5 4-9 9-9h820c5 0 9 4 9 9v611.4c0 5-4 9-9 9h-820z" fill="#F7D7FF" p-id="2006"></path><path d="M922.3 127.9v611.4h-820V127.9h820m0-18h-820c-9.9 0-18 8.1-18 18v611.4c0 9.9 8.1 18 18 18h820c9.9 0 18-8.1 18-18V127.9c0-10-8-18-18-18z" fill="#330867" p-id="2007"></path><path d="M102.3 229.7c-5 0-9-4-9-9v-92.8c0-5 4-9 9-9h820c5 0 9 4 9 9v92.8c0 5-4 9-9 9h-820z" fill="#F0BEFC" p-id="2008"></path><path d="M922.3 127.9v92.8h-820v-92.8h820m0-18h-820c-9.9 0-18 8.1-18 18v92.8c0 9.9 8.1 18 18 18h820c9.9 0 18-8.1 18-18v-92.8c0-10-8-18-18-18z" fill="#330867" p-id="2009"></path><path d="M155.4 198.3c-14.5 0-26.3-11.8-26.3-26.3s11.8-26.3 26.3-26.3 26.3 11.8 26.3 26.3-11.8 26.3-26.3 26.3z" fill="#FC6B79" p-id="2010"></path><path d="M155.4 148.6c12.9 0 23.3 10.5 23.3 23.3 0 12.9-10.5 23.3-23.3 23.3S132 184.8 132 171.9s10.5-23.3 23.4-23.3m0-6c-16.2 0-29.3 13.2-29.3 29.3s13.2 29.3 29.3 29.3 29.3-13.2 29.3-29.3-13.2-29.3-29.3-29.3z" fill="#330867" p-id="2011"></path><path d="M237.5 198.3c-14.5 0-26.3-11.8-26.3-26.3s11.8-26.3 26.3-26.3 26.3 11.8 26.3 26.3c0.1 14.5-11.8 26.3-26.3 26.3z" fill="#FFE08A" p-id="2012"></path><path d="M237.5 148.6c12.9 0 23.3 10.5 23.3 23.3 0 12.9-10.5 23.3-23.3 23.3-12.9 0-23.3-10.5-23.3-23.3 0-12.9 10.4-23.3 23.3-23.3m0-6c-16.2 0-29.3 13.2-29.3 29.3s13.2 29.3 29.3 29.3 29.3-13.2 29.3-29.3-13.1-29.3-29.3-29.3z" fill="#330867" p-id="2013"></path><path d="M319.7 198.3c-14.5 0-26.3-11.8-26.3-26.3s11.8-26.3 26.3-26.3S346 157.5 346 172s-11.8 26.3-26.3 26.3z" fill="#66C1FF" p-id="2014"></path><path d="M319.7 148.6c12.9 0 23.3 10.5 23.3 23.3 0 12.9-10.5 23.3-23.3 23.3-12.9 0-23.3-10.5-23.3-23.3-0.1-12.9 10.4-23.3 23.3-23.3m0-6c-16.2 0-29.3 13.2-29.3 29.3s13.2 29.3 29.3 29.3S349 188 349 171.9s-13.2-29.3-29.3-29.3z" fill="#330867" p-id="2015"></path><path d="M709 365.7c10.3 0 17.1 10.9 12.8 20.4l-39.3 87.4c-7.4 16.4-23.3 27-41 27.1l-259.9 2.1h-0.4c-17.5 0-33.5-10.3-41.1-26.4l-40.6-86.7c-4.5-9.5 2.3-20.6 12.6-20.6l396.7-3.2 0.2-0.1m0-24h-0.3L312 344.9c-13 0.1-24.9 6.8-31.9 17.8-7.1 11.2-7.9 25-2.3 37l40.6 86.7c5.6 12 14.5 22.1 25.6 29.3 11.2 7.2 24 11 37.3 11h0.6l259.9-2.1c26.9-0.2 51.5-16.4 62.7-41.3l39.3-87.4c5.4-12 4.4-25.8-2.8-36.8-7.1-10.9-19-17.4-32-17.4z" fill="#330867" p-id="2016"></path><path d="M427.8 675.2c-5 0-9-4-9-9v-13.1c0-13 14.6-33 36.3-42.5 0.3-0.4 1-1.8 1.1-4.4 0.4-6.6-2.1-32.1-51.9-84.4-30.8-32-50.8-78.5-57.8-134.7-5.3-42-1.6-74.3-1.4-75.6 0.5-4.5 4.4-7.9 8.9-7.9h313c4.6 0 8.4 3.4 8.9 7.9 0.2 1.4 3.9 33.6-1.4 75.6-7.1 56.1-27.1 102.7-57.9 134.7-49.7 52.3-52.2 77.8-51.8 84.4 0.2 2.6 0.8 3.9 1.2 4.4 21.8 9.5 36.3 29.4 36.3 42.5v13.1c0 5-4 9-9 9H427.8z" fill="#FC6B79" p-id="2017"></path><path d="M667.2 312.6s15.2 128.2-56.8 203c-61.7 65-58.9 96.8-48.7 102.9 19.2 8 31.8 25.3 31.8 34.6v13.1H427.8v-13.1c0-9.4 12.6-26.7 31.8-34.6 10.3-6.1 13.1-37.9-48.7-102.9-72-74.8-56.8-203-56.8-203h313.1m0-18h-313c-9.1 0-16.8 6.8-17.9 15.9-0.2 1.4-4 34.7 1.4 77.8 3.2 25.5 9 49.2 17.2 70.5 10.5 27.2 25 50.5 43.1 69.3 26 27.3 38 46.5 43.4 57.7 4.8 9.8 5.8 15.8 5.9 18.6-9.2 4.7-17.8 11.4-24.5 19.2-4.9 5.7-13 17.1-13 29.5v13.1c0 9.9 8.1 18 18 18h165.7c9.9 0 18-8.1 18-18v-13.1c0-12.4-8.2-23.8-13-29.5-6.7-7.8-15.2-14.5-24.5-19.2 0.1-2.9 1.1-8.8 5.9-18.6 5.5-11.2 17.5-30.4 43.4-57.7 18.1-18.8 32.6-42.1 43.1-69.3 8.2-21.3 14-45 17.2-70.5 5.4-43.1 1.6-76.4 1.4-77.8-1-9.1-8.7-15.9-17.8-15.9z" fill="#330867" p-id="2018"></path><path d="M354.2 312.6S339 440.8 411 515.6c61.7 65 58.9 96.8 48.7 102.9-19.2 8-31.8 25.3-31.8 34.6v13.1H528s-34.4-14.3-34.4-60.4c0-16.5-6.3-32.7-16.7-46.4-15.5-20.5-32.5-42.2-41.8-51.5-72.3-83.9-68-195.3-68-195.3h-12.9z" fill="#DD365E" p-id="2019"></path><path d="M233.2 775.7m-132 0a132 132 0 1 0 264 0 132 132 0 1 0-264 0Z" fill="#F0BEFC" p-id="2020"></path><path d="M233.2 652.7c67.9 0 123 55.1 123 123s-55.1 123-123 123-123-55.1-123-123 55.1-123 123-123m0-18c-37.7 0-73.1 14.7-99.7 41.3s-41.3 62-41.3 99.7 14.7 73.1 41.3 99.7 62 41.3 99.7 41.3 73.1-14.7 99.7-41.3c26.6-26.6 41.3-62 41.3-99.7s-14.7-73.1-41.3-99.7c-26.6-26.6-62-41.3-99.7-41.3z" fill="#330867" p-id="2021"></path><path d="M141.1 836.2c-2 0-4-0.7-5.7-2-3.9-3.1-4.4-8.8-1.3-12.7l38.1-47c2.9-3.6 8.1-4.4 11.9-1.9l35.4 23.2 45.8-57.8c3.1-3.9 8.7-4.6 12.6-1.5 3.9 3.1 4.6 8.7 1.5 12.6l-50.9 64.3c-2.9 3.7-8.1 4.5-12 1.9L181 792l-33 40.7c-1.7 2.4-4.3 3.5-6.9 3.5z" fill="#330867" p-id="2022"></path><path d="M288.3 773.6c-4.4 0-8.3-3.2-8.9-7.7l-5.3-37.2c-0.7-4.9 2.7-9.5 7.6-10.2 4.9-0.7 9.5 2.7 10.2 7.6l5.3 37.2c0.7 4.9-2.7 9.5-7.6 10.2-0.4 0-0.9 0.1-1.3 0.1z" fill="#330867" p-id="2023"></path><path d="M245.8 741.7c-4.4 0-8.3-3.2-8.9-7.7-0.7-4.9 2.7-9.5 7.6-10.2l37.2-5.3c4.9-0.7 9.5 2.7 10.2 7.6 0.7 4.9-2.7 9.5-7.6 10.2l-37.2 5.3c-0.5 0-0.9 0.1-1.3 0.1z" fill="#330867" p-id="2024"></path><path d="M845.5 748.5V909L693 905.7s2.2-35.1-12.7-47.2c-22.5-18.3-36.5-38.4-50.9-70.2-6.9-15.2-2.4-88.6-2.4-88.6h11.5c15.7 0 25.4 9.7 25.4 25.4l2.4 46c0.7 5.9 5.1 10.7 10.9 11.9l13.2 2.7V661.2c0-10.4 8.4-18.8 18.8-18.8h1.2c10.4 0 18.8 8.4 18.8 18.8v38.5c0-10.4 8.4-18.8 18.8-18.8h1.2c10.4 0 18.8 8.4 18.8 18.8 0-10.4 8.4-18.8 18.8-18.8h1.2c10.4 0 18.8 8.4 18.8 18.8 0-10.4 8.4-18.8 18.8-18.8h1.2c10.4 0 18.8 8.4 18.8 18.8l-0.1 48.8z" fill="#FFE08A" p-id="2025"></path><path d="M845.5 918h-0.2l-152.5-3.3c-2.5-0.1-4.8-1.1-6.4-2.9s-2.5-4.2-2.4-6.7c0.7-11.8-1.2-33-9.4-39.6-23-18.7-38-39.3-53.5-73.4-7.5-16.5-3.9-80.3-3.1-92.9 0.3-4.7 4.2-8.4 9-8.4h11.5c20.5 0 34.3 13.7 34.4 34.2l2.4 45.4c0.3 1.9 1.8 3.5 3.8 3.9l2.4 0.5V661.2c0-15.3 12.5-27.8 27.8-27.8h1.2c15.3 0 27.8 12.5 27.8 27.8v12.5c3-1.2 6.4-1.8 9.8-1.8h1.2c7.2 0 13.8 2.8 18.8 7.3 5-4.6 11.6-7.3 18.8-7.3h1.2c7.2 0 13.8 2.8 18.8 7.3 5-4.6 11.6-7.3 18.8-7.3h1.2c15.3 0 27.8 12.5 27.8 27.8V909c0 2.4-1 4.7-2.7 6.4-1.9 1.7-4.2 2.6-6.5 2.6zM702 896.9l134.4 2.9V749.3v-49.5c0-5.4-4.4-9.8-9.8-9.8h-1.2c-5.4 0-9.8 4.4-9.8 9.8 0 5-4 9-9 9s-9-4-9-9c0-5.4-4.4-9.8-9.8-9.8h-1.2c-5.4 0-9.8 4.4-9.8 9.8 0 5-4 9-9 9s-9-4-9-9c0-5.4-4.4-9.8-9.8-9.8h-1.2c-5.4 0-9.8 4.4-9.8 9.8 0 5-4 9-9 9s-9-4-9-9v-38.5c0-5.4-4.4-9.8-9.8-9.8H709c-5.4 0-9.8 4.4-9.8 9.8v124.6c0 2.7-1.2 5.3-3.3 7-2.1 1.7-4.9 2.4-7.5 1.8l-13.2-2.7c-9.6-2-16.9-9.9-18-19.6 0-0.2 0-0.4-0.1-0.6l-2.4-46v-0.5c0-10.8-5.7-16.4-16.4-16.4h-3c-1.5 29.1-1.7 67.6 2 75.9 14.2 31.4 27.8 50.2 48.4 66.9 13.3 10.5 15.9 32.5 16.3 45.2z" fill="#330867" p-id="2026"></path><path d="M729.1 771.6c-5 0-9-4-9-9v-62.8c0-5 4-9 9-9s9 4 9 9v62.8c0 4.9-4 9-9 9zM767.8 771.6c-5 0-9-4-9-9v-62.8c0-5 4-9 9-9s9 4 9 9v62.8c0 4.9-4 9-9 9z" fill="#330867" p-id="2027"></path><path d="M806.7 771.6c-5 0-9-4-9-9v-62.8c0-5 4-9 9-9s9 4 9 9v62.8c0 4.9-4.1 9-9 9z" fill="#330867" p-id="2028"></path></svg>