<?xml version="1.0" standalone="no"?><!DOCTYPE svg PUBLIC "-//W3C//DTD SVG 1.1//EN" "http://www.w3.org/Graphics/SVG/1.1/DTD/svg11.dtd"><svg t="1521210072392" class="icon" style="" viewBox="0 0 1024 1024" version="1.1" xmlns="http://www.w3.org/2000/svg" p-id="2322" xmlns:xlink="http://www.w3.org/1999/xlink" width="200" height="200"><defs><style type="text/css"></style></defs><path d="M102.3 741.8c-5 0-9-4-9-9V121.4c0-5 4-9 9-9h820c5 0 9 4 9 9v611.4c0 5-4 9-9 9h-820z" fill="#66C1FF" p-id="2323"></path><path d="M922.3 121.4v611.4h-820V121.4h820m0-18h-820c-9.9 0-18 8.1-18 18v611.4c0 9.9 8.1 18 18 18h820c9.9 0 18-8.1 18-18V121.4c0-10-8-18-18-18z" fill="#330867" p-id="2324"></path><path d="M102.3 741.8c-5 0-9-4-9-9v-93.2c0-5 4-9 9-9h820c5 0 9 4 9 9v93.2c0 5-4 9-9 9h-820z" fill="#FFFFFF" p-id="2325"></path><path d="M922.3 639.5v93.2h-820v-93.2h820m0-18h-820c-9.9 0-18 8.1-18 18v93.2c0 9.9 8.1 18 18 18h820c9.9 0 18-8.1 18-18v-93.2c0-9.9-8-18-18-18z" fill="#330867" p-id="2326"></path><path d="M922.3 732.8h-820v-51.1c226 35 499.3 44 820 27v24.1z" fill="#F7D7FF" p-id="2327"></path><path d="M445.8 858.9c-5 0-9-4-9-9v-99.2c0-5 4-9 9-9h133c5 0 9 4 9 9v99.2c0 5-4 9-9 9h-133z" fill="#F0BEFC" p-id="2328"></path><path d="M578.8 750.7v99.2h-133v-99.2h133m0-18h-133c-9.9 0-18 8.1-18 18v99.2c0 9.9 8.1 18 18 18h133c9.9 0 18-8.1 18-18v-99.2c0-10-8-18-18-18z" fill="#330867" p-id="2329"></path><path d="M186.8 912.3c-5 0-9-4-9-9v-53.4c0-5 4-9 9-9H838c5 0 9 4 9 9v53.4c0 5-4 9-9 9H186.8z" fill="#FFE08A" p-id="2330"></path><path d="M837.9 849.9v53.4H186.8v-53.4h651.1m0-18H186.8c-9.9 0-18 8.1-18 18v53.4c0 9.9 8.1 18 18 18H838c9.9 0 18-8.1 18-18v-53.4c-0.1-10-8.1-18-18.1-18z" fill="#330867" p-id="2331"></path><path d="M224.4 630.6c-5 0-9-4-9-9V294.4c0-1.7 0.5-3.3 1.3-4.7l52-85c1.6-2.7 4.5-4.3 7.7-4.3s6 1.6 7.7 4.3l52 85c0.9 1.4 1.3 3 1.3 4.7v327.2c0 5-4 9-9 9h-104z" fill="#FFFFFF" p-id="2332"></path><path d="M276.4 209.4l52 85v327.2h-104V294.4l52-85m0-18c-6.3 0-12.1 3.3-15.4 8.6l-52 85c-1.7 2.8-2.6 6.1-2.6 9.4v327.2c0 9.9 8.1 18 18 18h103.9c9.9 0 18-8.1 18-18V294.4c0-3.3-0.9-6.6-2.6-9.4l-52-85c-3.2-5.3-9-8.6-15.3-8.6z" fill="#330867" p-id="2333"></path><path d="M224.4 579.1h103.9v42.5H224.4z" fill="#FC6B79" p-id="2334"></path><path d="M224.4 294.4l52-85 52 85z" fill="#F7D7FF" p-id="2335"></path><path d="M255.1 244.2l21.3-34.8 21.3 34.8z" fill="#EAB236" p-id="2336"></path><path d="M328.4 582.1h-104c-1.7 0-3-1.3-3-3s1.3-3 3-3h103.9c1.7 0 3 1.3 3 3s-1.3 3-2.9 3z" fill="#330867" p-id="2337"></path><path d="M328.4 297.4h-104c-1.7 0-3-1.3-3-3s1.3-3 3-3h103.9c1.7 0 3 1.3 3 3s-1.3 3-2.9 3z" fill="#330867" p-id="2338"></path><path d="M558.333 629.043h-111.2v-427.6h111.2z" fill="#FFE08A" p-id="2339"></path><path d="M558.3 638H447c-5 0-9-4-9-9V201.4c0-5 4-9 9-9h111.2c5 0 9 4 9 9V629c0.1 5-3.9 9-8.9 9zM456 620h93.2V210.4H456V620z" fill="#330867" p-id="2340"></path><path d="M555.4 257.2h-38.2c-5 0-9-4-9-9s4-9 9-9h38.2c5 0 9 4 9 9s-4 9-9 9zM555.4 298.8h-38.2c-5 0-9-4-9-9s4-9 9-9h38.2c5 0 9 4 9 9s-4 9-9 9zM555.4 340.5h-38.2c-5 0-9-4-9-9s4-9 9-9h38.2c5 0 9 4 9 9s-4 9-9 9zM555.4 382.2h-38.2c-5 0-9-4-9-9s4-9 9-9h38.2c5 0 9 4 9 9s-4 9-9 9zM555.4 423.9h-38.2c-5 0-9-4-9-9s4-9 9-9h38.2c5 0 9 4 9 9s-4 9-9 9zM555.4 465.6h-38.2c-5 0-9-4-9-9s4-9 9-9h38.2c5 0 9 4 9 9s-4 9-9 9zM555.4 507.3h-38.2c-5 0-9-4-9-9s4-9 9-9h38.2c5 0 9 4 9 9s-4 9-9 9zM555.4 549h-38.2c-5 0-9-4-9-9s4-9 9-9h38.2c5 0 9 4 9 9s-4 9-9 9z" fill="#330867" p-id="2341"></path><path d="M555.4 590.7h-38.2c-5 0-9-4-9-9s4-9 9-9h38.2c5 0 9 4 9 9s-4 9-9 9z" fill="#330867" p-id="2342"></path><path d="M846 499.5c-2.3 0-4.6-0.9-6.4-2.6L798.7 456l-18.6 18.6c-1.7 1.7-4 2.6-6.4 2.6-0.7 0-1.4-0.1-2.1-0.2-3-0.7-5.5-3-6.5-6l-31.8-98.3c-1-3.2-0.2-6.7 2.2-9.1 1.7-1.7 4-2.6 6.4-2.6 0.9 0 1.9 0.1 2.8 0.4l98.3 31.8c3 1 5.2 3.4 6 6.5 0.7 3-0.2 6.3-2.4 8.5L828 426.8l40.9 40.9c1.7 1.7 2.6 4 2.6 6.4 0 2.4-0.9 4.7-2.6 6.4L852.4 497c-1.8 1.7-4.1 2.5-6.4 2.5z" fill="#FC6B79" p-id="2343"></path><path d="M741.9 370l98.3 31.8-25 25 47.3 47.3-16.5 16.4-47.3-47.3-25 25-31.8-98.2m0-18c-4.7 0-9.3 1.8-12.7 5.3-4.8 4.8-6.5 11.8-4.4 18.3l31.8 98.3c1.9 6 6.8 10.5 12.9 12 1.4 0.3 2.8 0.5 4.2 0.5 4.7 0 9.3-1.9 12.7-5.3l12.2-12.2 34.5 34.5c3.4 3.4 8 5.3 12.7 5.3 4.8 0 9.4-1.9 12.7-5.3l16.5-16.5c7-7 7-18.4 0-25.5l-34.5-34.5 12.2-12.2c4.4-4.4 6.2-10.8 4.8-16.9-1.5-6.1-6-11-12-12.9l-98.3-31.8c-1.6-0.9-3.4-1.1-5.3-1.1z" fill="#330867" p-id="2344"></path><path d="M711.8 351.8c-2.5 0-4.9-1-6.7-3L686 327.6c-3.3-3.7-3-9.4 0.7-12.7 3.7-3.3 9.4-3 12.7 0.7l19.1 21.2c3.3 3.7 3 9.4-0.7 12.7-1.7 1.5-3.9 2.3-6 2.3z" fill="#330867" p-id="2345"></path><path d="M757.7 340.5c-5 0-9-4.1-9-9l0.1-23.8c0-5 4-9 9-9s9 4.1 9 9l-0.1 23.8c0 5-4 9-9 9z" fill="#330867" p-id="2346"></path><path d="M675.4 399.3c-4.5 0-8.5-3.4-8.9-8.1-0.5-4.9 3.1-9.4 8-9.9l28.3-3c4.9-0.5 9.4 3.1 9.9 8s-3.1 9.4-8 9.9l-28.3 3c-0.4 0.1-0.7 0.1-1 0.1z" fill="#330867" p-id="2347"></path></svg>