<?xml version="1.0" standalone="no"?><!DOCTYPE svg PUBLIC "-//W3C//DTD SVG 1.1//EN" "http://www.w3.org/Graphics/SVG/1.1/DTD/svg11.dtd"><svg t="1521210081726" class="icon" style="" viewBox="0 0 1024 1024" version="1.1" xmlns="http://www.w3.org/2000/svg" p-id="2639" xmlns:xlink="http://www.w3.org/1999/xlink" width="200" height="200"><defs><style type="text/css"></style></defs><path d="M130.2 633.3c-1.1-3.6-2.2-7.2-3.2-10.8 1 3.6 2 7.2 3.2 10.8zM650.7 888.9c-87.9 32.4-184.9 32.9-273 1.6v0.1c42 15 87.2 23.1 134.4 23.1 48.7 0 95.4-8.7 138.6-24.7v-0.1zM911.8 500.3l-151.1-57.1c-2.1-0.8-4-2-5.7-3.5l-85.3 27.7c-0.1 1.2-0.4 2.4-0.8 3.6l-53 163c0.9 0.6 1.7 1.3 2.4 2.3l55.9 76.8c0.6-0.1 1.2-0.1 1.8-0.1 1.6 0 3.2 0.2 4.7 0.8l150.4 41.1c50.7-67 80.8-150.6 80.8-241.1 0.1-4.5 0-9-0.1-13.5zM193.4 755.7c-0.2-0.3-0.4-0.5-0.6-0.8 0.2 0.3 0.4 0.6 0.6 0.8zM653.3 832.1l4.8-102c0.1-2.2 0.7-4.4 1.6-6.4l-55.9-76.8c-1.7 0.5-3.5 0.8-5.3 0.8H425.6c-0.6 0-1.1 0-1.7-0.1l-55.4 76.2c0.9 2 1.4 4.1 1.5 6.4l1.9 40.8c89.1 49.3 188.2 68.9 281.4 61.1zM303.5 725.6l43.9-12c1.5-0.4 3.1-0.6 4.7-0.6 0.6 0 1.2 0 1.8 0.1l55.3-76c-0.3-0.6-0.5-1.2-0.7-1.8l-53.4-164.4c-0.2-0.5-0.3-1-0.4-1.4-0.6-0.1-1.3-0.2-1.9-0.4l-90.3-29.3c-1.6 1.5-3.5 2.6-5.6 3.4l-125.1 47.3C172 591.9 232.6 669.8 303.5 725.6zM526 252.3c-1.4 1.7-3.1 3.2-5 4.3v91.6c0.5 0.3 1.1 0.6 1.6 1l139.9 101.7 86.9-28.2c0.5-2.2 1.3-4.3 2.6-6.2l87.2-132.8c-51.5-73.2-127-128.3-215-154L526 252.3zM268.2 422.7l90.1 29.3c0.4 0.1 0.9 0.3 1.3 0.5 0.6-0.6 1.3-1.2 2-1.7l139.8-101.6c0.5-0.4 1.1-0.7 1.6-1v-91.6c-1.9-1.1-3.6-2.5-5-4.3l-98.2-122.5C309.9 156 233 213 181.4 288.5l84.1 128c1.4 1.9 2.2 4 2.7 6.2z" fill="#FFE08A" p-id="2640"></path><path d="M897.1 351.1c-21.1-49.8-51.2-94.5-89.6-132.9-38.4-38.4-83.1-68.5-132.9-89.6-51.4-21.7-106.2-32.8-162.6-32.8-56.4 0-111.2 11.1-162.7 32.9-49.8 21.1-94.5 51.2-132.9 89.6-38.4 38.4-68.5 83.1-89.6 132.9C105.1 402.6 94 457.4 94 513.8c0 56.4 11.1 111.2 32.9 162.7 21.1 49.8 51.2 94.5 89.6 132.9 38.4 38.4 83.1 68.5 132.9 89.6 51.5 21.8 106.3 32.9 162.7 32.9s111.2-11.1 162.7-32.9c49.8-21.1 94.5-51.2 132.9-89.6s68.5-83.1 89.6-132.9C919 625 930 570.2 930 513.8s-11-111.2-32.9-162.7z m13.5 129.5l-143.2-54.1c0-0.1 0-0.2-0.1-0.2 0-0.1-0.1-0.2-0.1-0.2L850.1 300c33.6 53 55.1 114.6 60.5 180.6z m-71.4-196.9L752 416.5c-1.2 1.9-2.1 4-2.6 6.2l-86.9 28.2-139.9-101.7c-0.5-0.4-1.1-0.7-1.6-1v-91.6c1.9-1.1 3.6-2.5 5-4.3l98.2-122.5c88 25.6 163.5 80.8 215 153.9zM598.5 629.8H425.6l-53.4-164.4L512 363.8l139.9 101.6-53.4 164.4z m-86.5-516c32.1 0 63.3 3.8 93.2 10.9l-92.8 115.9h-0.8l-92.8-115.9c29.9-7.1 61.1-10.9 93.2-10.9z m-112.2 16L498 252.3c1.4 1.8 3.1 3.2 5 4.3v91.6c-0.5 0.3-1.1 0.6-1.6 1L361.6 450.8c-0.7 0.5-1.4 1.1-2 1.7-0.4-0.2-0.8-0.4-1.3-0.5l-90.1-29.3c-0.5-2.2-1.3-4.3-2.6-6.2l-84.1-128c51.6-75.6 128.4-132.5 218.3-158.7zM192.4 754.4c-0.9-1.2-1.8-2.4-2.7-3.7-0.3-0.4-0.6-0.8-0.9-1.3-0.6-0.8-1.2-1.6-1.8-2.5-1.3-1.8-2.6-3.6-3.9-5.5l-0.1-0.1c-19.5-28.1-35-58.1-46.5-89.3l-0.3-0.9c-0.4-1-0.7-2.1-1.1-3.1-0.3-0.7-0.5-1.4-0.8-2.2-0.3-0.9-0.6-1.7-0.9-2.6-0.3-0.9-0.6-1.9-1-2.8-0.2-0.7-0.5-1.4-0.7-2.1-0.4-1.2-0.8-2.5-1.2-3.7-0.1-0.4-0.3-0.9-0.4-1.3-1.1-3.6-2.2-7.2-3.2-10.8-0.1-0.2-0.1-0.5-0.2-0.7-0.4-1.6-0.9-3.1-1.3-4.7-0.1-0.4-0.2-0.7-0.3-1.1-0.4-1.4-0.8-2.9-1.1-4.4l-0.3-1.2c-0.4-1.5-0.7-2.9-1.1-4.4-0.1-0.4-0.2-0.7-0.3-1.1-0.4-1.6-0.7-3.3-1.1-4.9 0-0.2-0.1-0.4-0.1-0.6-0.4-1.8-0.8-3.6-1.1-5.4-0.1-0.6-0.3-1.3-0.4-1.9-0.2-1.1-0.4-2.2-0.6-3.2-0.2-1-0.4-2.1-0.6-3.1-0.1-0.6-0.2-1.3-0.4-1.9-0.2-1.3-0.4-2.5-0.7-3.8-0.1-0.3-0.1-0.7-0.2-1-7.1-42.9-7.2-86.7-0.2-129.6v0.1c8.4-52.3 27-101.3 53.7-144.7L250 425.8c-0.1 0.2-0.1 0.3-0.2 0.5 0 0.1 0 0.1-0.1 0.2l-136.4 51.6c-0.6 6.5-1 13.1-1.3 19.7l19.5-7.4 125.1-47.3c2.1-0.8 4-2 5.6-3.4l90.3 29.3c0.6 0.2 1.3 0.3 1.9 0.4 0.1 0.5 0.2 1 0.4 1.4l53.4 164.4c0.2 0.6 0.4 1.2 0.7 1.8l-55.3 76c-0.6-0.1-1.2-0.1-1.8-0.1-1.6 0-3.2 0.2-4.7 0.6l-43.9 12-110.1 30.1c-0.2-0.3-0.4-0.5-0.6-0.8 0.2 0 0.1-0.2-0.1-0.4z m13.3 16.6l145.8-39.9c0.1 0.1 0.2 0.2 0.3 0.2 0.1 0.1 0.2 0.1 0.3 0.2l7.1 152c-59.9-24.7-112.4-63.6-153.5-112.5zM512 913.8c-47.1 0-92.4-8.2-134.4-23.1v-0.1L371.9 771l-1.9-40.8c-0.1-2.2-0.7-4.4-1.5-6.4l55.4-76.2c0.6 0.1 1.1 0.1 1.7 0.1h172.9c1.8 0 3.6-0.3 5.3-0.8l55.9 76.8c-0.9 2-1.4 4.2-1.6 6.4l-4.8 102-2.7 56.9v0.2c-43.2 15.9-89.9 24.6-138.6 24.6z m157-32l7.1-150.2c0.1-0.1 0.2-0.1 0.3-0.2 0.1-0.1 0.2-0.2 0.3-0.2l142.4 38.9c-40.2 48.2-91.6 86.7-150.1 111.7z m162.2-126.9l-150.4-41.1c-1.5-0.6-3.1-0.8-4.7-0.8-0.6 0-1.2 0-1.8 0.1l-55.9-76.8c-0.7-0.9-1.5-1.7-2.4-2.3l53-163c0.4-1.2 0.6-2.4 0.8-3.6l85.3-27.7c1.6 1.5 3.5 2.6 5.7 3.5l151.1 57.1c0.1 4.5 0.2 9 0.2 13.5-0.1 90.6-30.2 174.1-80.9 241.1z" fill="#330867" p-id="2641"></path><path d="M650.7 888.9l2.7-56.9c-93.2 7.8-192.3-11.8-281.4-61.1l5.7 119.5c88.1 31.5 185.1 30.9 273-1.5zM303.5 725.6C232.6 669.8 172 591.9 131.8 490.5l-19.5 7.4c0.3-6.6 0.7-13.2 1.3-19.7 0.8-9.6 2-19.1 3.5-28.4v-0.1c-6.9 42.9-6.9 86.7 0.2 129.6 0.1 0.3 0.1 0.7 0.2 1 0.2 1.3 0.4 2.5 0.7 3.8 0.1 0.6 0.2 1.3 0.4 1.9 0.2 1 0.4 2.1 0.6 3.1 0.2 1.1 0.4 2.2 0.6 3.2 0.1 0.6 0.2 1.3 0.4 1.9 0.4 1.8 0.7 3.6 1.1 5.4 0 0.2 0.1 0.4 0.1 0.6 0.4 1.6 0.7 3.3 1.1 4.9 0.1 0.4 0.2 0.7 0.3 1.1 0.3 1.5 0.7 2.9 1.1 4.4l0.3 1.2c0.4 1.5 0.7 2.9 1.1 4.4 0.1 0.4 0.2 0.7 0.3 1.1 0.4 1.6 0.8 3.1 1.3 4.7 0.1 0.2 0.1 0.5 0.2 0.7 1 3.6 2.1 7.2 3.2 10.8 0.1 0.4 0.3 0.9 0.4 1.3 0.4 1.2 0.8 2.5 1.2 3.7 0.2 0.7 0.5 1.4 0.7 2.1 0.3 0.9 0.6 1.9 1 2.8 0.3 0.9 0.6 1.7 0.9 2.6 0.3 0.7 0.5 1.4 0.8 2.2 0.4 1 0.7 2.1 1.1 3.1l0.3 0.9c11.5 31.2 27 61.2 46.5 89.3l0.1 0.1c1.3 1.8 2.6 3.7 3.9 5.5 0.6 0.8 1.2 1.6 1.8 2.5 0.3 0.4 0.6 0.8 0.9 1.3 0.9 1.2 1.8 2.4 2.7 3.7 0.1 0.2 0.3 0.4 0.4 0.6 0.2 0.3 0.4 0.5 0.6 0.8l109.9-30.4z" fill="#EAB236" p-id="2642"></path><path d="M512 363.8L372.2 465.4l53.4 164.4h172.9l53.4-164.4zM512 240.6h0.4l92.8-115.9c-29.9-7.1-61.1-10.9-93.2-10.9s-63.3 3.8-93.2 10.9l92.8 115.9h0.4zM249.9 426.5c0-0.1 0-0.1 0.1-0.2 0.1-0.2 0.1-0.3 0.2-0.5L170.8 305c-26.7 43.4-45.2 92.4-53.7 144.7-1.5 9.4-2.7 18.9-3.5 28.4l136.3-51.6zM351.8 731.4c-0.1-0.1-0.2-0.2-0.3-0.2L205.7 771c41.1 48.9 93.7 87.8 153.6 112.6l-7.1-152c-0.2-0.1-0.3-0.1-0.4-0.2zM676.4 731.4c-0.1 0.1-0.2 0.1-0.3 0.2L669 881.8c58.5-25 109.9-63.6 150.1-111.7l-142.4-38.9c-0.1 0-0.2 0.1-0.3 0.2zM767.4 426.3c0 0.1 0 0.2 0.1 0.2l143.2 54.1c-5.4-66.1-26.9-127.6-60.5-180.7L767.4 426c-0.1 0.1 0 0.2 0 0.3z" fill="#66C1FF" p-id="2643"></path></svg>