<?xml version="1.0" standalone="no"?><!DOCTYPE svg PUBLIC "-//W3C//DTD SVG 1.1//EN" "http://www.w3.org/Graphics/SVG/1.1/DTD/svg11.dtd"><svg t="1521188901076" class="icon" style="" viewBox="0 0 1024 1024" version="1.1" xmlns="http://www.w3.org/2000/svg" p-id="1858" xmlns:xlink="http://www.w3.org/1999/xlink" width="200" height="200"><defs><style type="text/css"></style></defs><path d="M749.8 925.5H221.4c-40.4 0-73.2-32.8-73.2-73.2V189c0-40.4 32.8-73.2 73.2-73.2h528.4c40.4 0 73.2 32.8 73.2 73.2v606.6" fill="#FC6B79" p-id="1859"></path><path d="M749.8 934.5H221.4c-45.3 0-82.2-36.9-82.2-82.2V189c0-45.3 36.9-82.2 82.2-82.2h528.4c45.3 0 82.2 36.9 82.2 82.2v606.6c0 5-4 9-9 9s-9-4-9-9V189c0-35.4-28.8-64.2-64.2-64.2H221.4c-35.4 0-64.2 28.8-64.2 64.2v663.3c0 35.4 28.8 64.2 64.2 64.2h528.4c5 0 9 4 9 9s-4 9-9 9z" fill="#330867" p-id="1860"></path><path d="M823 942H221.4c-40.4 0-73.2-32.8-73.2-73.2 0-40.4 32.8-73.2 73.2-73.2H823" fill="#F7D7FF" p-id="1861"></path><path d="M823 951H221.4c-45.3 0-82.2-36.9-82.2-82.2s36.9-82.2 82.2-82.2H823c5 0 9 4 9 9s-4 9-9 9H221.4c-35.4 0-64.2 28.8-64.2 64.2S186 933 221.4 933H823c5 0 9 4 9 9s-4 9-9 9z" fill="#330867" p-id="1862"></path><path d="M844.7 951H271.5c-5 0-9-4-9-9s4-9 9-9h573.2c15.1 0 27.5-14.2 27.5-31.7V131c0-5 4-9 9-9s9 4 9 9v770.3c0 27.4-20.4 49.7-45.5 49.7z" fill="#330867" p-id="1863"></path><path d="M725 878.8H254.2c-5.5 0-10-4.5-10-10s4.5-10 10-10H725c5.5 0 10 4.5 10 10s-4.5 10-10 10z" fill="#330867" p-id="1864"></path><path d="M302.5 701.5c-7.4 0-11.4-4.6-12.6-8.9-2.5-8.6 4.2-19.9 17.2-40.9 5.3-8.6 14-22.5 15.7-28.4-21.6-21.1-38.6-45.8-50.7-73.4-12.9-29.5-19.4-60.8-19.4-93.3 0-62.2 24.2-120.7 68.2-164.8 44-44 102.5-68.2 164.8-68.2s120.7 24.2 164.8 68.2 68.2 102.5 68.2 164.8-24.2 120.7-68.2 164.8c-44 44-102.5 68.2-164.8 68.2-36.5 0-72.8-8.6-105.1-25-5.3 1.6-19.6 9.7-29.3 15.2-23.9 13.5-39 21.7-48.8 21.7z" fill="#FFE08A" p-id="1865"></path><path d="M485.6 232.7c123.7 0 224 100.3 224 224s-100.3 224-224 224c-37.1 0-72.1-9-102.9-25-0.4-0.2-0.8-0.3-1.4-0.3-11.5 0-63.6 37.1-78.8 37.1-2.1 0-3.5-0.7-4-2.4-3.2-11.1 40.8-63.4 32.5-71.4-42.8-40.8-69.4-98.3-69.4-162.1 0-123.6 100.3-223.9 224-223.9m0-18c-32.7 0-64.4 6.4-94.2 19-28.8 12.2-54.7 29.6-76.9 51.9-22.2 22.2-39.7 48.1-51.9 76.9-12.6 29.8-19 61.5-19 94.2 0 33.7 6.8 66.3 20.2 96.9 11.7 26.8 27.9 50.9 48.3 71.8-3.1 6.2-8.9 15.5-12.7 21.6-14.8 23.8-21.7 35.8-18.2 48.1 2.7 9.4 11 15.4 21.3 15.4 12.3 0 28.2-8.7 53.1-22.8 7.6-4.3 18.4-10.5 24.5-13.2 32.7 15.8 69 24.2 105.5 24.2 32.7 0 64.4-6.4 94.2-19 28.8-12.2 54.7-29.6 76.9-51.9 22.2-22.2 39.7-48.1 51.9-76.9 12.6-29.8 19-61.5 19-94.2s-6.4-64.4-19-94.2c-12.2-28.8-29.6-54.7-51.9-76.9-22.2-22.2-48.1-39.7-76.9-51.9-29.8-12.6-61.5-19-94.2-19z" fill="#330867" p-id="1866"></path><path d="M418.6 332.9c3.3 4.1 5.7 7 7.4 8.6 4.9 5.7 10.2 7 16 3.7 5.7-4.1 6.6-9.4 2.5-16-4.1-7.4-9.4-14.3-16-20.9-6.6-5.7-12.3-6.1-17.2-1.2-4.9 4.9-4.9 10.7 0 17.2 1.5 1.6 4 4.5 7.3 8.6zM578.5 471.9H395.2c-14.8 0-22.1 7.4-22.1 22.1v76.3c0 15.6 7.4 23.4 22.1 23.4h183.3c16.4 0.8 24.2-7 23.4-23.4V494c0.7-15.6-7-22.9-23.4-22.1z m0 91c0 4.9-2.9 7.4-8.6 7.4h-166c-5.7-0.8-9-3.3-9.8-7.4v-19.7h184.5v19.7z m0-43.1H394v-16c0-5.7 3.3-8.6 9.8-8.6h166c5.7 0 8.6 2.9 8.6 8.6v16z" fill="#330867" p-id="1867"></path><path d="M626.4 428.8h-49.2c5.7-6.6 13.1-17.2 22.1-32 3.3-6.6 1.6-11.9-4.9-16-6.6-2.5-11.9-0.8-16 4.9-9.8 19.7-19.7 34-29.5 43h-19.7v-56.6h87.3c6.6 0 10.2-4.1 11.1-12.3-0.8-8.2-4.5-12.3-11.1-12.3h-68.9c3.3-4.1 8.6-11.1 16-20.9 4.1-6.6 2.9-12.3-3.7-17.2-8.2-4.1-14.4-3.3-18.4 2.5-4.9 9.8-12.7 21.7-23.4 35.7H353.4c-6.6 0-10.3 4.1-11.1 12.3 0.8 8.2 4.5 12.3 11.1 12.3H442v56.6h-97.2c-6.6 0-9.8 3.7-9.8 11.1 0 8.2 3.3 12.3 9.8 12.3h281.7c6.6 0 9.8-4.1 9.8-12.3 0-7.4-3.3-11.1-9.9-11.1z m-121.7 0h-38.1v-56.6h38.1v56.6z" fill="#330867" p-id="1868"></path><path d="M391.5 420.2c4.9 6.6 10.6 7.8 17.2 3.7 4.9-4.9 5.3-11.1 1.2-18.4 0-0.8-0.4-1.6-1.2-2.5-7.4-9.8-13.1-16.8-17.2-20.9-4.9-4.1-10.3-3.7-16 1.2-4.1 4.1-4.1 9 0 14.8 0.8 1.7 2.9 4.5 6.1 8.6 4.2 4.9 7.5 9.4 9.9 13.5z" fill="#330867" p-id="1869"></path></svg>