<?xml version="1.0" standalone="no"?><!DOCTYPE svg PUBLIC "-//W3C//DTD SVG 1.1//EN" "http://www.w3.org/Graphics/SVG/1.1/DTD/svg11.dtd"><svg t="1521210076778" class="icon" style="" viewBox="0 0 1024 1024" version="1.1" xmlns="http://www.w3.org/2000/svg" p-id="2485" xmlns:xlink="http://www.w3.org/1999/xlink" width="200" height="200"><defs><style type="text/css"></style></defs><path d="M513.3 395.8c-67.3 0-135.2-19-135.2-61.3 0-46.9 23.7-89.7 63.5-114.6 1.5-0.9 3.1-1.4 4.8-1.4 2.8 0 5.5 1.3 7.3 3.7 12.5 17.2 35.3 27.9 59.7 27.9s47.2-10.7 59.7-27.9c1.8-2.4 4.5-3.7 7.3-3.7 1.6 0 3.3 0.4 4.8 1.4 39.7 24.9 63.5 67.8 63.5 114.6-0.1 42.4-68.1 61.3-135.4 61.3z" fill="#FC6B79" p-id="2486"></path><path d="M580.3 227.5c35.6 22.3 59.3 61.9 59.3 107 0 34.9-63.1 52.3-126.2 52.3s-126.2-17.4-126.2-52.3c0-45.1 23.7-84.7 59.3-107 13.7 18.9 38.6 31.6 67 31.6 28.2 0 53.1-12.6 66.8-31.6m0-18c-5.6 0-11.1 2.6-14.6 7.4-10.8 14.9-30.9 24.1-52.4 24.1s-41.6-9.3-52.4-24.1c-3.5-4.8-9-7.4-14.6-7.4-3.3 0-6.6 0.9-9.6 2.8-20.3 12.7-37.3 30.5-49.1 51.3-12.2 21.5-18.6 46-18.6 70.9 0 13.3 5.7 25.7 16.5 35.9 8.4 8 20.1 14.8 34.8 20.2 24.8 9.1 57.9 14.2 93 14.2s68.2-5 93-14.2c14.6-5.4 26.3-12.2 34.8-20.2 10.8-10.2 16.5-22.6 16.5-35.9 0-24.9-6.4-49.4-18.6-70.9-11.8-20.9-28.8-38.6-49.1-51.3-3-1.9-6.3-2.8-9.6-2.8z" fill="#330867" p-id="2487"></path><path d="M387.1 334.5c0 69.7 252.5 69.7 252.5 0 0-45.1-252.5-45.1-252.5 0z" fill="#DD365E" p-id="2488"></path><path d="M446.70665 204.391801a72.1 72.1 0 1 0 133.223429-55.182951 72.1 72.1 0 1 0-133.223429 55.182951Z" fill="#FC6B79" p-id="2489"></path><path d="M513.3 113.7c34.8 0 63.1 28.2 63.1 63.1s-28.2 63.1-63.1 63.1c-34.8 0-63.1-28.2-63.1-63.1s28.3-63.1 63.1-63.1m0-18c-44.7 0-81.1 36.4-81.1 81.1s36.4 81.1 81.1 81.1c44.7 0 81.1-36.4 81.1-81.1S558 95.7 513.3 95.7z" fill="#330867" p-id="2490"></path><path d="M245.1 921.4c-67.3 0-135.2-19-135.2-61.3 0-46.9 23.7-89.7 63.5-114.6 1.5-0.9 3.1-1.4 4.8-1.4 2.8 0 5.5 1.3 7.3 3.7 12.5 17.2 35.3 27.9 59.7 27.9s47.2-10.7 59.7-27.9c1.8-2.4 4.5-3.7 7.3-3.7 1.6 0 3.3 0.4 4.8 1.4 39.7 24.9 63.5 67.8 63.5 114.6-0.2 42.4-68.1 61.3-135.4 61.3z" fill="#FFE08A" p-id="2491"></path><path d="M312.1 753.1c35.6 22.3 59.3 61.9 59.3 107 0 34.9-63.1 52.3-126.2 52.3S118.9 895 118.9 860.1c0-45.1 23.7-84.7 59.3-107 13.7 18.9 38.6 31.6 67 31.6s53.2-12.6 66.9-31.6m0-18c-5.6 0-11.1 2.6-14.6 7.4-10.8 14.9-30.9 24.1-52.4 24.1s-41.6-9.3-52.4-24.1c-3.5-4.8-9-7.4-14.6-7.4-3.3 0-6.6 0.9-9.6 2.8-20.3 12.7-37.3 30.5-49.1 51.3-12.2 21.5-18.6 46-18.6 70.9 0 13.3 5.7 25.7 16.5 35.9 8.4 8 20.1 14.8 34.8 20.2 24.8 9.1 57.9 14.2 93 14.2s68.2-5 93-14.2c14.6-5.4 26.3-12.2 34.8-20.2 10.8-10.2 16.5-22.6 16.5-35.9 0-24.9-6.4-49.4-18.6-70.9-11.8-20.9-28.8-38.6-49.1-51.3-3-1.9-6.3-2.8-9.6-2.8z" fill="#330867" p-id="2492"></path><path d="M118.9 860.1c0 69.7 252.5 69.7 252.5 0-0.1-45.1-252.5-45.1-252.5 0z" fill="#EAB236" p-id="2493"></path><path d="M245.1 702.4m-72.1 0a72.1 72.1 0 1 0 144.2 0 72.1 72.1 0 1 0-144.2 0Z" fill="#FFE08A" p-id="2494"></path><path d="M245.1 639.3c34.8 0 63.1 28.2 63.1 63.1s-28.2 63.1-63.1 63.1-63.1-28.2-63.1-63.1 28.3-63.1 63.1-63.1m0-18c-44.7 0-81.1 36.4-81.1 81.1s36.4 81.1 81.1 81.1 81.1-36.4 81.1-81.1-36.4-81.1-81.1-81.1z" fill="#330867" p-id="2495"></path><path d="M781.6 921.4c-67.3 0-135.2-19-135.2-61.3 0-46.9 23.7-89.7 63.5-114.6 1.5-0.9 3.1-1.4 4.8-1.4 2.8 0 5.5 1.3 7.3 3.7 12.5 17.2 35.3 27.9 59.7 27.9 24.3 0 47.2-10.7 59.7-27.9 1.8-2.4 4.5-3.7 7.3-3.7 1.6 0 3.3 0.4 4.8 1.4 39.7 24.9 63.5 67.8 63.5 114.6-0.2 42.4-68.1 61.3-135.4 61.3z" fill="#66C1FF" p-id="2496"></path><path d="M848.5 753.1c35.6 22.3 59.3 61.9 59.3 107 0 34.9-63.1 52.3-126.2 52.3S655.3 895 655.3 860.1c0-45.1 23.7-84.7 59.3-107 13.7 18.9 38.6 31.6 67 31.6 28.3 0 53.2-12.6 66.9-31.6m0-18c-5.6 0-11.1 2.6-14.6 7.4-10.8 14.9-30.9 24.1-52.4 24.1s-41.6-9.3-52.4-24.1c-3.5-4.8-9-7.4-14.6-7.4-3.3 0-6.6 0.9-9.6 2.8-20.3 12.7-37.3 30.5-49.1 51.3-12.2 21.5-18.6 46-18.6 70.9 0 13.3 5.7 25.7 16.5 35.9 8.4 8 20.1 14.8 34.8 20.2 24.8 9.1 57.9 14.2 93 14.2s68.2-5 93-14.2c14.6-5.4 26.3-12.2 34.8-20.2 10.8-10.2 16.5-22.6 16.5-35.9 0-24.9-6.4-49.4-18.6-70.9-11.8-20.9-28.8-38.6-49.1-51.3-3-1.9-6.3-2.8-9.6-2.8z" fill="#330867" p-id="2497"></path><path d="M655.3 860.1c0 69.7 252.5 69.7 252.5 0 0-45.1-252.5-45.1-252.5 0z" fill="#18A3D3" p-id="2498"></path><path d="M781.6 702.4m-72.1 0a72.1 72.1 0 1 0 144.2 0 72.1 72.1 0 1 0-144.2 0Z" fill="#66C1FF" p-id="2499"></path><path d="M781.6 639.3c34.8 0 63.1 28.2 63.1 63.1s-28.2 63.1-63.1 63.1-63.1-28.2-63.1-63.1 28.2-63.1 63.1-63.1m0-18c-44.7 0-81.1 36.4-81.1 81.1s36.4 81.1 81.1 81.1 81.1-36.4 81.1-81.1-36.4-81.1-81.1-81.1z" fill="#330867" p-id="2500"></path><path d="M513.3 601.8c-8.3 0-15-6.7-15-15v-128c0-8.3 6.7-15 15-15s15 6.7 15 15v128c0 8.3-6.7 15-15 15z" fill="#330867" p-id="2501"></path><path d="M402.5 665.8c-5.2 0-10.2-2.7-13-7.5-4.1-7.2-1.7-16.3 5.5-20.5l110.8-64c7.2-4.1 16.3-1.7 20.5 5.5 4.1 7.2 1.7 16.3-5.5 20.5l-110.8 64c-2.4 1.3-4.9 2-7.5 2z" fill="#330867" p-id="2502"></path><path d="M624.2 665.8c-2.5 0-5.1-0.6-7.5-2l-110.8-64c-7.2-4.1-9.6-13.3-5.5-20.5 4.1-7.2 13.3-9.6 20.5-5.5l110.8 64c7.2 4.1 9.6 13.3 5.5 20.5-2.8 4.8-7.9 7.5-13 7.5z" fill="#330867" p-id="2503"></path></svg>