<?xml version="1.0" standalone="no"?><!DOCTYPE svg PUBLIC "-//W3C//DTD SVG 1.1//EN" "http://www.w3.org/Graphics/SVG/1.1/DTD/svg11.dtd"><svg t="1521210053314" class="icon" style="" viewBox="0 0 1024 1024" version="1.1" xmlns="http://www.w3.org/2000/svg" p-id="2166" xmlns:xlink="http://www.w3.org/1999/xlink" width="200" height="200"><defs><style type="text/css"></style></defs><path d="M107 207.7h812v656.1H107z" fill="#18A3D3" p-id="2167"></path><path d="M910 216.7v638.1H116V216.7h794m18-18H98v674.1h830V198.7z" fill="#330867" p-id="2168"></path><path d="M513 861.2c-1.7 0-3-1.3-3-3V213.4c0-1.7 1.3-3 3-3s3 1.3 3 3v644.8c0 1.6-1.3 3-3 3z" fill="#330867" p-id="2169"></path><path d="M512.2 846.3c-67-62.1-216.8-42-388.6 0V199.6c177.9-50.5 331.1-75.2 388.6 0v646.7z" fill="#FFFFFF" p-id="2170"></path><path d="M512.7 847.5l-0.8-0.8c-31.2-28.9-81.7-41.6-154.6-38.9-59.5 2.2-133.6 14.6-233.5 39l-0.6 0.2V199.2l0.4-0.1c103.8-29.4 179.9-44.4 239.6-47.2 73.7-3.4 122.6 12.1 149.5 47.3l0.1 0.1v648.2zM124.2 200v645.7c99.6-24.3 173.7-36.7 233.1-38.9 72.5-2.7 123.1 9.9 154.5 38.4V199.8c-26.7-34.8-75.3-50.1-148.6-46.8-59.6 2.7-135.5 17.6-239 47z" fill="#330867" p-id="2171"></path><path d="M512.2 846.3c67-62.1 216.8-42 388.6 0V199.6c-177.9-50.5-331.1-75.2-388.6 0v646.7z" fill="#FFFFFF" p-id="2172"></path><path d="M512.2 849.3c-0.4 0-0.8-0.1-1.2-0.3-1.1-0.5-1.8-1.6-1.8-2.8V199.6c0-0.7 0.2-1.3 0.6-1.8 27.4-35.9 77-51.7 151.6-48.3 59.9 2.7 136.2 17.7 240.1 47.2 1.3 0.4 2.2 1.5 2.2 2.9v646.7c0 0.9-0.4 1.8-1.1 2.4s-1.7 0.8-2.6 0.6c-99.7-24.4-173.7-36.8-233-39-72.2-2.7-122.2 9.8-152.8 38.3-0.5 0.5-1.2 0.7-2 0.7z m136.3-45.4c6.1 0 12.4 0.1 18.8 0.4 59 2.2 132.3 14.4 230.5 38.2V201.9c-102.4-29-177.6-43.7-236.6-46.4-71.9-3.3-119.7 11.5-146 45.2v639.1c29.2-24.1 73-35.9 133.3-35.9z" fill="#330867" p-id="2173"></path><path d="M272.9 582.4c-7.7 0-13.5-1.9-17.3-5.5-4.4-4.2-6.6-11.2-6.6-20.6V406.1c0-9.6 2.2-16.8 6.7-21.5 4.4-4.7 11.5-7.4 20.9-8.1l65.5-4.8c5-0.4 9.8-0.6 14.1-0.6 4.1 0 8 0.2 11.5 0.5 7.4 0.7 14.2 2.6 20.1 5.8 5 2.6 9.6 6.1 13.5 10.4 3.9 4.3 6.9 9.2 9 14.6 2 5.4 3.1 11.3 3.1 17.4 0 18.9-8.6 34.1-25.7 45.1 23.4 7.7 35.2 23.4 35.2 46.8 0 11.7-3.1 22.6-9.1 32.4-6.1 9.8-14.3 17.4-24.6 22.6-6.4 3.1-13.8 5.5-22 7.2-8.1 1.6-17.6 2.9-28.4 3.7l-61.7 4.5c-1.6 0.2-2.9 0.3-4.2 0.3z m22.9-38l40.7-3c26-1.9 38.7-11.6 38.7-29.6 0-9-3-15.1-9.2-18.5-5.2-2.9-12.7-4.4-22.3-4.4-2.5 0-5.3 0.1-8.1 0.3l-39.8 2.9v52.3z m0-87.3l34.3-2.5c9.8-0.7 17.5-2.2 22.7-4.4 4.9-2.1 8.6-5.5 11.2-10.5l0.1-0.1c2.1-3.5 3-7.3 3-11.6 0-8.8-2.9-14.2-9-16.5-4.9-1.9-11.8-2.8-20.5-2.8-3.5 0-7.3 0.2-11.4 0.5l-30.4 2.2v45.7z" fill="#EAB236" p-id="2174"></path><path d="M356.1 374.2c4 0 7.8 0.2 11.2 0.5 7.1 0.7 13.4 2.5 19 5.4 4.8 2.5 9 5.7 12.7 9.8 3.7 4 6.5 8.6 8.4 13.7 1.9 5.1 2.9 10.5 2.9 16.3 0 20-10.1 35.3-30.3 46.1 26.6 6.4 39.8 21.7 39.8 45.8 0 11.2-2.9 21.4-8.7 30.8s-13.6 16.6-23.4 21.5c-6.2 3-13.2 5.3-21.2 6.9-8 1.6-17.3 2.8-28 3.6l-61.7 4.5c-1.3 0.1-2.6 0.1-3.9 0.1-6.9 0-12-1.6-15.2-4.7-3.8-3.7-5.7-9.8-5.7-18.4v-150c0-8.8 2-15.3 5.9-19.4 3.9-4.1 10.2-6.5 19-7.2l65.5-4.8c4.7-0.3 9.4-0.5 13.7-0.5m-63.3 86.1l37.5-2.7c10.2-0.7 18.1-2.3 23.6-4.6 5.6-2.3 9.8-6.3 12.7-11.8 2.3-4 3.5-8.3 3.5-13.1 0-10.1-3.6-16.5-10.9-19.3-5.2-2-12.4-3-21.6-3-3.6 0-7.5 0.2-11.6 0.5l-33.2 2.4v51.6m0 87.4l44-3.2c27.7-2 41.5-12.9 41.5-32.6 0-10.1-3.6-17.1-10.8-21.1-5.7-3.2-13.6-4.8-23.8-4.8-2.6 0-5.4 0.1-8.3 0.3l-42.6 3.1v58.3m63.3-179.5c-4.4 0-9.2 0.2-14.3 0.6l-65.5 4.8c-10.2 0.7-17.9 3.8-22.9 9-5 5.3-7.5 13.2-7.5 23.6v150.1c0 10.3 2.5 17.9 7.6 22.8 4.4 4.2 10.9 6.4 19.4 6.4 1.4 0 2.8-0.1 4.3-0.2l61.7-4.5c10.9-0.8 20.5-2 28.7-3.7 8.4-1.7 16.1-4.2 22.6-7.4 10.8-5.5 19.5-13.5 25.8-23.7 6.4-10.3 9.6-21.7 9.6-34 0-13.5-3.8-24.8-11.4-33.5-5.1-5.9-11.9-10.6-20.4-14.1 14.8-11.3 22.3-26.1 22.3-44.3 0-6.5-1.1-12.7-3.3-18.5-2.2-5.8-5.4-11-9.6-15.6-4.2-4.6-9-8.3-14.4-11.1-6.2-3.3-13.4-5.3-21.2-6.1-3.4-0.5-7.3-0.6-11.5-0.6z m-57.3 46.1l27.7-2c4-0.3 7.8-0.4 11.2-0.4 8.4 0 14.9 0.9 19.4 2.6 3.3 1.3 7 4 7 13.7 0 3.7-0.9 7-2.6 10.1l-0.1 0.1-0.1 0.1c-2.3 4.3-5.5 7.3-9.7 9.1-4.9 2.1-12.3 3.4-21.8 4.1l-31 2.3v-39.7z m0 80.6l37-2.7c2.8-0.2 5.4-0.3 7.9-0.3 9.1 0 16.1 1.4 20.8 4 3.3 1.8 7.7 5.5 7.7 15.9 0 10.3-3.7 24.3-35.9 26.6l-37.5 2.7v-46.2z" fill="#330867" p-id="2175"></path><path d="M865.4 644.1c-19.5 0-75-3.4-139.5-37.9-40.6-21.7-86-17.6-117-10.3-33.8 7.9-58.3 21.3-58.5 21.4l-2.9-5.3c1-0.6 25.3-13.8 59.9-21.9 32.1-7.6 79.1-11.8 121.4 10.8 78.4 41.9 142.9 37.1 143.6 37l0.5 6c-0.2 0-2.8 0.2-7.5 0.2zM865.4 727.6c-19.5 0-75-3.4-139.5-37.9-40.6-21.7-86-17.6-117-10.3-33.8 7.9-58.3 21.3-58.5 21.4l-2.9-5.3c1-0.6 25.3-13.8 59.9-21.9 32.1-7.6 79.1-11.8 121.4 10.8 78.4 41.9 142.9 37.1 143.6 37l0.5 6c-0.2 0-2.8 0.2-7.5 0.2z" fill="#EAB236" p-id="2176"></path><path d="M865.4 560.5c-19.5 0-75-3.4-139.5-37.9-40.6-21.7-86-17.6-117-10.3-33.8 7.9-58.3 21.3-58.5 21.4l-2.9-5.3c1-0.6 25.3-13.8 59.9-21.9 32.1-7.6 79.1-11.8 121.4 10.8 78.4 41.9 142.9 37.1 143.6 37l0.5 6c-0.2 0-2.8 0.2-7.5 0.2z" fill="#EAB236" p-id="2177"></path><path d="M865.4 477c-19.5 0-75-3.4-139.5-37.9-40.6-21.7-86.2-17.5-117.2-10.2-33.8 8-58.1 21.2-58.4 21.4l-2.9-5.3c1-0.6 25.3-13.8 59.9-21.9 32.1-7.6 79.1-11.8 121.4 10.8 78.5 42 142.9 37.1 143.6 37l0.5 6c-0.1-0.1-2.7 0.1-7.4 0.1z" fill="#EAB236" p-id="2178"></path><path d="M729 324.3c-4.6-0.7-58-9.2-81.9-9.2-23.9 0-77.2 8.5-81.9 9.2-10.4-0.1-18.9-8.6-18.9-19.1v-69.7c0-10.5 8.6-19.1 19.1-19.1h0.5c0.6-0.1 59.6-9.2 81.2-9.2s80.6 9.1 81.2 9.2h0.5c10.5 0 19.1 8.6 19.1 19.1v69.7c-0.1 10.5-8.5 19-18.9 19.1z" fill="#FC6B79" p-id="2179"></path><path d="M647.1 210.2c21.3 0 80.1 9.1 80.7 9.2 0.3 0 0.6 0.1 0.9 0.1 8.9 0 16.1 7.2 16.1 16.1v69.7c0 8.7-7 15.9-15.7 16.1-6.1-1-58.3-9.2-82.1-9.2s-76 8.2-82.1 9.2c-8.7-0.2-15.7-7.4-15.7-16.1v-69.7c0-8.9 7.2-16.1 16.1-16.1 0.3 0 0.6 0 0.9-0.1 0.8-0.2 59.6-9.2 80.9-9.2m0-6c-22.1 0-81.7 9.2-81.7 9.2-12.2 0-22.1 9.9-22.1 22.1v69.7c0 12.2 9.9 22.1 22.1 22.1 0 0 57.1-9.2 81.7-9.2s81.7 9.2 81.7 9.2c12.2 0 22.1-9.9 22.1-22.1v-69.7c0-12.2-9.9-22.1-22.1-22.1 0 0-59.6-9.2-81.7-9.2z" fill="#330867" p-id="2180"></path><path d="M779.9 282s59.4 16.5 87.1 16.5" fill="#FC6B79" p-id="2181"></path><path d="M867 301.5c-27.8 0-85.4-15.9-87.9-16.6-1.6-0.4-2.5-2.1-2.1-3.7 0.4-1.6 2.1-2.5 3.7-2.1 0.6 0.2 59.3 16.4 86.3 16.4 1.7 0 3 1.3 3 3s-1.4 3-3 3z" fill="#EAB236" p-id="2182"></path><path d="M766.5 360.8s57.1 15.2 90.9 15.2" fill="#FFFFFF" p-id="2183"></path><path d="M857.4 379c-33.8 0-89.3-14.7-91.7-15.3-1.6-0.4-2.6-2.1-2.1-3.7s2.1-2.6 3.7-2.1c0.6 0.2 57.1 15.1 90.1 15.1 1.7 0 3 1.3 3 3s-1.4 3-3 3z" fill="#EAB236" p-id="2184"></path></svg>