<?xml version="1.0" encoding="utf-8"?>
<!-- Generator: Adobe Illustrator 19.0.0, SVG Export Plug-In . SVG Version: 6.00 Build 0)  -->
<svg version="1.1" id="图层_1" xmlns="http://www.w3.org/2000/svg" xmlns:xlink="http://www.w3.org/1999/xlink" x="0px" y="0px"
	  width="1024" height="1024" viewBox="0 0 1024 1024" enable-background="new 0 0 1024 1024" xml:space="preserve">
<g id="XMLID_1_">
	<path id="XMLID_10_" d="M803.864,374.298C792.879,165.434,666.338,0,512,0C357.632,0,231.092,165.445,220.107,374.305
		c-31.327,2.092-56.401,27.614-56.401,59.46v530c0,33.235,27.029,60.235,60.235,60.235h576.118c33.235,0,60.235-27,60.235-60.235
		v-530C860.294,401.908,835.232,376.368,803.864,374.298z M512,60.235c121.408,0,221.283,138.015,231.673,313.294H280.298
		C290.688,198.25,390.566,60.235,512,60.235z M800,963.765H223.941v-530h576.118L800,963.765z" fill="#ff6633"/>
	<path id="XMLID_12_" d="M512,560.294c-16.647,0-30.118,13.471-30.118,30.118v136c0,16.647,13.471,30.118,30.118,30.118
		c16.647,0,30.118-13.471,30.118-30.118v-136C542.118,573.765,528.647,560.294,512,560.294z"/>
</g>
</svg>
