<?xml version="1.0" encoding="utf-8"?>
<!-- Generator: Adobe Illustrator 19.0.0, SVG Export Plug-In . SVG Version: 6.00 Build 0)  -->
<svg version="1.1" id="图形" xmlns="http://www.w3.org/2000/svg" xmlns:xlink="http://www.w3.org/1999/xlink" x="0px" y="0px"
	  width="1024" height="1024" viewBox="0 0 1024 1024" style="enable-background:new 0 0 1024 1024;" xml:space="preserve">
<style type="text/css">
	.st0{fill:#272636;}
</style>
<path class="st0" d="M783.6,291.7C783.6,130.9,656.2,0,499.2,0c-156.6,0-284,130.9-284,291.7c0,117.2,67.6,218.2,164.7,264.4
	c-166,47.9-305,193-364,390.6c-4.3,14.1,3.8,29.1,18,33.3c2.6,0.9,5.1,1.3,7.7,1.3c11.1,0,21.8-7.7,25.2-19.2
	c66.3-221.2,240-369.6,432.5-369.6c37.2,0,74,5.6,109.5,16.3c14.1,4.3,29.1-3.8,33-18c4.3-14.1-3.4-29.1-17.5-33.4
	c-1.7-0.4-3.4-0.9-5.1-1.3C716,509.4,783.6,408.9,783.6,291.7z M499.1,530c-127.4,0-231-106.9-231-238.3
	c0-131.3,103.6-238.2,231-238.2c127.5,0,231.4,106.9,231.4,238.2C730.6,423,626.6,530,499.1,530z"/>
<path class="st0" d="M586.1,780.6l70.6-75.3h254v42.3c5,5,19,9.3,24,4.3l71-53.9c5-5,5-13,0-18l-71-53.9c-5-5-19-5.8-24-0.8v47
	H642.5l-75.3,75.3c-7.7,9.6-9.4,19-9.4,28.2C557.9,785.1,574.5,790,586.1,780.6z M981.3,822.9l-70.4,75.2H657.5v-42.3
	c-5-5-19-9.3-23.9-4.3l-70.8,53.9c-5,5-5,13,0,18l70.8,53.9c5,5,19,5.7,23.9,0.8v-47H925l75.1-75.2c7.6-9.6,9.4-19,9.4-28.2
	S992.9,813.6,981.3,822.9z"/>
</svg>
