<?xml version="1.0" encoding="utf-8"?>
<!-- Generator: Adobe Illustrator 19.0.0, SVG Export Plug-In . SVG Version: 6.00 Build 0)  -->
<svg version="1.1" id="图形" xmlns="http://www.w3.org/2000/svg" xmlns:xlink="http://www.w3.org/1999/xlink" x="0px" y="0px"
	  width="1024" height="1024" viewBox="0 0 1024 1024" style="enable-background:new 0 0 1024 1024;" xml:space="preserve">
<style type="text/css">
	.st0{fill:#272636;}
</style>
<path class="st0" d="M783.6,291.7C783.6,130.9,656.2,0,499.2,0c-156.6,0-284,130.9-284,291.7c0,117.2,67.6,218.2,164.7,264.4
	c-166,47.9-305,193-364,390.6c-4.3,14.1,3.8,29.1,18,33.3c2.6,0.9,5.1,1.3,7.7,1.3c11.1,0,21.8-7.7,25.2-19.2
	c66.3-221.2,240-369.6,432.5-369.6c37.2,0,74,5.6,109.5,16.3c14.1,4.3,29.1-3.8,33-18c4.3-14.1-3.4-29.1-17.5-33.4
	c-1.7-0.4-3.4-0.9-5.1-1.3C716,509.4,783.6,408.9,783.6,291.7z M499.1,530c-127.4,0-231-106.9-231-238.3
	c0-131.3,103.6-238.2,231-238.2c127.5,0,231.4,106.9,231.4,238.2C730.6,423,626.6,530,499.1,530z"/>
<path class="st0" d="M975,633.6c-7.6-6.2-19.2-5.6-25.9,1.5L833.3,762.1l0,0c0,0-113.4-124.3-113.4-124.3c-6.7-7-18.3-9.1-25.9-2.9
	c-7.6,6.2-8.3,21.9-1.6,28.9l84.8,98.2h-73.5c-10.1,0-18.3,4.3-18.3,13.7c0,9.4,8.2,13.7,18.3,13.7h109.8l0.1,27.4H703.8
	c-10.1,0-18.3,4.3-18.3,13.7s8.2,13.7,18.3,13.7h110l0.4,116.2c0,9.4,8.3,20.7,18.4,20.7c0,0,0,0,0.1,0c10.1,0,18.3-12.3,18.3-21.7
	l-0.4-115.1h110.2c10.1,0,18.4-4.3,18.4-13.7s-8.2-13.7-18.4-13.7H850.4l-0.1-27.4h110.5c10.1,0,18.4-4.3,18.4-13.7
	c0-9.4-8.2-13.7-18.4-13.7h-69l84.8-98.9C983.3,656.2,982.6,639.8,975,633.6z"/>
</svg>
