<?xml version="1.0" encoding="utf-8"?>
<!-- Generator: Adobe Illustrator 19.0.0, SVG Export Plug-In . SVG Version: 6.00 Build 0)  -->
<svg version="1.1" id="图形" xmlns="http://www.w3.org/2000/svg" xmlns:xlink="http://www.w3.org/1999/xlink" x="0px" y="0px"
	  width="1024" height="1024" viewBox="0 0 1024 1024" style="enable-background:new 0 0 1024 1024;" xml:space="preserve">
<style type="text/css">
	.st0{fill:#272636;}
</style>
<path class="st0" d="M512,0C229.2,0,0,229.2,0,512c0,282.8,229.2,512,512,512s512-229.2,512-512C1024,229.2,794.8,0,512,0z
	 M810.9,373.3L460.4,713.2c-6,5.8-13.7,8.7-21.4,8.7c-7.9,0-15.7-3-21.7-9L280.7,576.3c-12-12-12-31.4,0-43.4c12-12,31.4-12,43.4,0
	L439.3,648l328.8-318.8c12.2-11.8,31.6-11.5,43.4,0.7C823.4,342.1,823.1,361.5,810.9,373.3z"/>
</svg>
