<?xml version="1.0" encoding="UTF-8"?>
<svg width="1024px" height="1024px" viewBox="0 0 1024 1024" version="1.1" xmlns="http://www.w3.org/2000/svg" xmlns:xlink="http://www.w3.org/1999/xlink">
    <!-- Generator: Sketch 48.2 (47327) - http://www.bohemiancoding.com/sketch -->
    <desc>Created with Sketch.</desc>
    <defs></defs>
    <g id="Artboard" stroke="none" stroke-width="1" fill="none" fill-rule="evenodd">
        <g id="个人信息-点击" fill="#57A3F2">
            <path d="M853.333333,308.008594 L659.102517,113.777778 L227.555556,113.777778 C196.13669,113.777778 170.666667,139.247801 170.666667,170.666667 L170.666667,853.333333 C170.666667,884.752199 196.13669,910.222222 227.555556,910.222222 L796.444444,910.222222 C827.86331,910.222222 853.333333,884.752199 853.333333,853.333333 L853.333333,308.008594 Z M227.555556,56.8888889 L682.666667,56.8888889 L910.222222,284.444444 L910.222222,853.333333 C910.222222,916.171065 859.282176,967.111111 796.444444,967.111111 L227.555556,967.111111 C164.717824,967.111111 113.777778,916.171065 113.777778,853.333333 L113.777778,170.666667 C113.777778,107.828935 164.717824,56.8888889 227.555556,56.8888889 Z" id="Rectangle-22" fill-rule="nonzero"></path>
            <path d="M910.222222,312.888889 L910.222222,369.777778 L739.555556,369.777778 C661.008391,369.777778 597.333333,306.10272 597.333333,227.555556 L597.333333,56.8888889 L654.222222,56.8888889 L654.222222,227.555556 C654.222222,274.683854 692.427257,312.888889 739.555556,312.888889 L910.222222,312.888889 Z" id="Rectangle-20" fill-rule="nonzero"></path>
            <rect id="Rectangle-11-Copy" x="284.444444" y="512" width="341.333333" height="56.8888889"></rect>
            <rect id="Rectangle-11-Copy-2" x="284.444444" y="682.666667" width="455.111111" height="56.8888889"></rect>
        </g>
    </g>
</svg>