<?xml version="1.0" encoding="UTF-8"?>
<svg width="1024px" height="1024px" viewBox="0 0 1024 1024" version="1.1" xmlns="http://www.w3.org/2000/svg" xmlns:xlink="http://www.w3.org/1999/xlink">
    <!-- Generator: Sketch 48.2 (47327) - http://www.bohemiancoding.com/sketch -->
    <desc>Created with Sketch.</desc>
    <defs></defs>
    <g id="Artboard" stroke-width="1" fill="none" fill-rule="evenodd">
        <g id="rr" fill="#A9B3C2">
            <path d="M227.555556,113.777778 C196.13669,113.777778 170.666667,139.247801 170.666667,170.666667 L170.666667,853.333333 C170.666667,884.752199 196.13669,910.222222 227.555556,910.222222 L796.444444,910.222222 C827.86331,910.222222 853.333333,884.752199 853.333333,853.333333 L853.333333,170.666667 C853.333333,139.247801 827.86331,113.777778 796.444444,113.777778 L227.555556,113.777778 Z M227.555556,56.8888889 L796.444444,56.8888889 C859.282176,56.8888889 910.222222,107.828935 910.222222,170.666667 L910.222222,853.333333 C910.222222,916.171065 859.282176,967.111111 796.444444,967.111111 L227.555556,967.111111 C164.717824,967.111111 113.777778,916.171065 113.777778,853.333333 L113.777778,170.666667 C113.777778,107.828935 164.717824,56.8888889 227.555556,56.8888889 Z" id="Rectangle-15" fill-rule="nonzero"></path>
            <path d="M625.777778,967.111111 L625.777778,910.222222 C625.777778,878.803356 600.307755,853.333333 568.888889,853.333333 L455.111111,853.333333 C423.692245,853.333333 398.222222,878.803356 398.222222,910.222222 L398.222222,967.111111 L341.333333,967.111111 L341.333333,910.222222 C341.333333,847.384491 392.27338,796.444444 455.111111,796.444444 L568.888889,796.444444 C631.72662,796.444444 682.666667,847.384491 682.666667,910.222222 L682.666667,967.111111 L625.777778,967.111111 Z M625.777778,967.111111 L625.777778,910.222222 C625.777778,878.803356 600.307755,853.333333 568.888889,853.333333 L455.111111,853.333333 C423.692245,853.333333 398.222222,878.803356 398.222222,910.222222 L398.222222,967.111111 L341.333333,967.111111 L341.333333,910.222222 C341.333333,847.384491 392.27338,796.444444 455.111111,796.444444 L568.888889,796.444444 C631.72662,796.444444 682.666667,847.384491 682.666667,910.222222 L682.666667,967.111111 L625.777778,967.111111 Z" id="Rectangle-13" fill-rule="nonzero"></path>
            <rect id="Rectangle-13-Copy" x="341.333333" y="455.111111" width="341.333333" height="56.8888889"></rect>
            <path d="M284.944444,284.444444 L739.055556,284.444444 C739.331698,284.444444 739.555556,284.668302 739.555556,284.944444 L739.555556,340.833333 C739.555556,341.109476 739.331698,341.333333 739.055556,341.333333 L284.944444,341.333333 C284.668302,341.333333 284.444444,341.109476 284.444444,340.833333 L284.444444,284.944444 C284.444444,284.668302 284.668302,284.444444 284.944444,284.444444 Z" id="Rectangle-13-Copy-2"></path>
        </g>
    </g>
</svg>