<?xml version="1.0" encoding="UTF-8"?>
<svg width="1024px" height="1024px" viewBox="0 0 1024 1024" version="1.1" xmlns="http://www.w3.org/2000/svg" xmlns:xlink="http://www.w3.org/1999/xlink">
    <!-- Generator: Sketch 48.2 (47327) - http://www.bohemiancoding.com/sketch -->
    <title>待办事项-默认</title>
    <desc>Created with Sketch.</desc>
    <defs></defs>
    <g id="Artboard" stroke="none" stroke-width="1" fill="none" fill-rule="evenodd">
        <g id="待办事项-默认" fill="#A9B3C2">
            <path d="M424,437.333333 L424,285.638095 L575.695238,437.333333 L424,437.333333 Z M600,922.666667 L101.333333,922.666667 L101.333333,261.333333 L365.333333,261.333333 L365.333333,496 L600,496 L600,922.666667 Z M101.333333,202.666667 C68.9409524,202.666667 42.6666667,228.940952 42.6666667,261.333333 L42.6666667,922.666667 C42.6666667,955.059048 68.9409524,981.333333 101.333333,981.333333 L600,981.333333 C632.392381,981.333333 658.666667,955.059048 658.666667,922.666667 L658.666667,437.333333 L424,202.666667 L101.333333,202.666667 Z M746.666667,320 L746.666667,168.304762 L898.361905,320 L746.666667,320 Z M746.666667,85.3333333 L424,85.3333333 C391.607619,85.3333333 365.333333,111.607619 365.333333,144 L424,144 L688,144 L688,378.666667 L922.666667,378.666667 L922.666667,805.333333 L717.333333,805.333333 L717.333333,864 L922.666667,864 C955.059048,864 981.333333,837.725714 981.333333,805.333333 L981.333333,320 L746.666667,85.3333333 Z" id="Icon"></path>
        </g>
    </g>
</svg>