<?xml version="1.0" encoding="UTF-8"?>
<svg width="1024px" height="1024px" viewBox="0 0 1024 1024" version="1.1" xmlns="http://www.w3.org/2000/svg" xmlns:xlink="http://www.w3.org/1999/xlink">
    <!-- Generator: Sketch 48.2 (47327) - http://www.bohemiancoding.com/sketch -->
    <title>更改密码-默认</title>
    <desc>Created with Sketch.</desc>
    <defs></defs>
    <g id="Artboard" stroke="none" stroke-width="1" fill="none" fill-rule="evenodd">
        <g id="更改密码-默认" fill="#A9B3C2" fill-rule="nonzero">
            <path d="M227.555556,455.111111 C196.13669,455.111111 170.666667,480.581134 170.666667,512 L170.666667,853.333333 C170.666667,884.752199 196.13669,910.222222 227.555556,910.222222 L796.444444,910.222222 C827.86331,910.222222 853.333333,884.752199 853.333333,853.333333 L853.333333,512 C853.333333,480.581134 827.86331,455.111111 796.444444,455.111111 L227.555556,455.111111 Z M227.555556,398.222222 L796.444444,398.222222 C859.282176,398.222222 910.222222,449.162268 910.222222,512 L910.222222,853.333333 C910.222222,916.171065 859.282176,967.111111 796.444444,967.111111 L227.555556,967.111111 C164.717824,967.111111 113.777778,916.171065 113.777778,853.333333 L113.777778,512 C113.777778,449.162268 164.717824,398.222222 227.555556,398.222222 Z" id="Rectangle-21"></path>
            <path d="M284.444444,398.222222 L739.555556,398.222222 L739.555556,341.333333 C739.555556,215.65787 637.675463,113.777778 512,113.777778 C386.324537,113.777778 284.444444,215.65787 284.444444,341.333333 L284.444444,398.222222 Z M227.555556,455.111111 L227.555556,341.333333 C227.555556,184.239004 354.905671,56.8888889 512,56.8888889 C669.094329,56.8888889 796.444444,184.239004 796.444444,341.333333 L796.444444,455.111111 L227.555556,455.111111 Z" id="Rectangle-25"></path>
            <path d="M512,625.777778 C480.581134,625.777778 455.111111,651.247801 455.111111,682.666667 C455.111111,714.085532 480.581134,739.555556 512,739.555556 C543.418866,739.555556 568.888889,714.085532 568.888889,682.666667 C568.888889,651.247801 543.418866,625.777778 512,625.777778 Z M512,568.888889 C574.837732,568.888889 625.777778,619.828935 625.777778,682.666667 C625.777778,745.504398 574.837732,796.444444 512,796.444444 C449.162268,796.444444 398.222222,745.504398 398.222222,682.666667 C398.222222,619.828935 449.162268,568.888889 512,568.888889 Z" id="Rectangle-23"></path>
        </g>
    </g>
</svg>