<?xml version="1.0" encoding="UTF-8"?>
<svg width="1024px" height="1024px" viewBox="0 0 1024 1024" version="1.1" xmlns="http://www.w3.org/2000/svg" xmlns:xlink="http://www.w3.org/1999/xlink">
    <!-- Generator: Sketch 48.2 (47327) - http://www.bohemiancoding.com/sketch -->
    <title>收藏-默认</title>
    <desc>Created with Sketch.</desc>
    <defs></defs>
    <g id="Artboard" stroke="none" stroke-width="1" fill="none" fill-rule="evenodd">
        <g id="Group-24" fill="#A9B3C2" fill-rule="nonzero">
            <path d="M600.910378,312.216505 L515.161561,130.936662 C513.309924,127.021113 510.690076,127.021113 508.835628,130.942605 L423.113553,312.165951 C404.196923,352.172182 367.058578,380.30362 323.621928,386.901745 L131.917532,415.973972 C128.507977,416.490901 125.993138,424.566652 130.258672,428.903236 L268.962708,569.963766 C299.409688,600.929741 313.135464,644.973959 306.057,688.059079 L273.306091,887.248652 C272.234883,893.757274 276.084314,896.675353 278.099309,895.569535 L449.558083,801.538632 C488.533345,780.149761 535.444981,780.149761 574.451722,801.531722 L745.917016,895.578492 C747.915686,896.675353 751.765117,893.757274 750.69227,887.238685 L717.94168,688.051049 C710.864536,644.973959 724.590312,600.929741 755.038538,569.962499 L893.748676,428.895764 C898.006862,424.566652 895.492023,416.490901 892.080022,415.973601 L700.36255,386.899389 C656.956791,380.305955 619.856306,352.19425 600.910378,312.216505 Z M658.744505,284.808226 C668.667847,305.74744 687.820122,320.259999 709.97404,323.62523 L901.67599,352.697086 C957.47519,361.156902 979.76351,432.714799 939.375731,473.77529 L800.672941,614.834554 C784.634311,631.146576 777.309406,654.633083 781.09506,677.675567 L813.84433,876.855173 C823.386867,934.835298 765.03403,979.074063 715.126114,951.684822 L543.674054,857.645313 C523.84977,846.778422 500.15023,846.778422 480.348346,857.645313 L308.873886,951.684822 C258.96597,979.074063 200.613133,934.835298 210.15567,876.855173 L242.90494,677.675567 C246.690594,654.633083 239.365689,631.146576 223.327059,614.834554 L84.6242695,473.77529 C44.2364901,432.714799 66.5248098,361.156902 122.32401,352.697086 L314.02596,323.62523 C336.179878,320.259999 355.354553,305.74744 365.255495,284.808226 L450.981525,103.576518 C475.935483,50.8078273 548.064517,50.8078273 573.018475,103.576518 L658.744505,284.808226 Z" id="收藏-默认"></path>
        </g>
    </g>
</svg>