<?xml version="1.0" encoding="UTF-8"?>
<svg width="1024px" height="1024px" viewBox="0 0 1024 1024" version="1.1" xmlns="http://www.w3.org/2000/svg" xmlns:xlink="http://www.w3.org/1999/xlink">
    <!-- Generator: Sketch 48.2 (47327) - http://www.bohemiancoding.com/sketch -->
    <title>首页-默认</title>
    <desc>Created with Sketch.</desc>
    <defs></defs>
    <g id="Artboard" stroke="none" stroke-width="1" fill="none" fill-rule="evenodd">
        <g id="首页-默认" fill="#A9B3C2" fill-rule="nonzero">
            <path d="M896,299.267125 C896,285.978943 889.113977,273.702345 877.93593,267.060114 L508.731639,47.6303229 C497.499401,40.9490416 483.622583,41.0754895 472.6035,47.6303229 L103.397403,267.060114 C92.2193566,273.702345 85.3333333,285.980803 85.3333333,299.267125 L85.3333333,738.124847 C85.3333333,751.651048 92.5156074,763.862563 103.397403,770.331858 L472.601694,989.759789 C483.777934,996.40388 497.54998,996.40388 508.729833,989.759789 L877.572843,770.547563 C888.548571,764.204716 895.998194,752.487835 895.998194,738.124847 L895.998194,299.267125 L896,299.267125 Z M823.741916,673.707105 L526.795709,497.223095 L526.795709,144.255076 L823.741916,320.739086 L823.741916,673.707105 Z M454.537624,144.255076 L454.537624,497.223095 L157.591418,673.707105 L157.591418,320.737226 L454.537624,144.255076 Z M490.66757,914.605137 L193.719557,738.124847 L490.66757,561.640837 L787.613777,738.124847 L490.66757,914.605137 Z" id="首页"></path>
        </g>
    </g>
</svg>