<?xml version="1.0" encoding="UTF-8"?>
<svg width="1024px" height="1024px" viewBox="0 0 1024 1024" version="1.1" xmlns="http://www.w3.org/2000/svg" xmlns:xlink="http://www.w3.org/1999/xlink">
    <!-- Generator: Sketch 48.2 (47327) - http://www.bohemiancoding.com/sketch -->
    <title>退出登录-默认</title>
    <desc>Created with Sketch.</desc>
    <defs></defs>
    <g id="Artboard" stroke="none" stroke-width="1" fill="none" fill-rule="evenodd">
        <g id="退出登录-默认" fill="#A9B3C2">
            <path d="M853.333333,796.444444 L853.333333,227.555556 C853.333333,196.13669 827.86331,170.666667 796.444444,170.666667 L227.555556,170.666667 C196.13669,170.666667 170.666667,196.13669 170.666667,227.555556 L170.666667,796.444444 C170.666667,827.86331 196.13669,853.333333 227.555556,853.333333 L796.444444,853.333333 C827.86331,853.333333 853.333333,827.86331 853.333333,796.444444 Z M910.222222,284.444444 L853.333333,284.444444 L853.333333,739.555556 L910.222222,739.555556 L910.222222,796.444444 C910.222222,859.282176 859.282176,910.222222 796.444444,910.222222 L227.555556,910.222222 C164.717824,910.222222 113.777778,859.282176 113.777778,796.444444 L113.777778,227.555556 C113.777778,164.717824 164.717824,113.777778 227.555556,113.777778 L796.444444,113.777778 C859.282176,113.777778 910.222222,164.717824 910.222222,227.555556 L910.222222,284.444444 Z" id="Rectangle-11" fill-rule="nonzero"></path>
            <path d="M803.346224,568.888889 L343.333333,568.888889 C342.228764,568.888889 341.333333,567.993458 341.333333,566.888889 L341.333333,514 C341.333333,512.895431 342.228764,512 343.333333,512 L803.346224,512 L672.298806,380.952582 C671.517757,380.171533 671.517757,378.905203 672.298806,378.124154 L709.696898,340.726062 C710.477946,339.945014 711.744276,339.945014 712.525325,340.726062 L873.431401,501.632139 L910.829493,539.030231 C911.610542,539.811279 911.610542,541.077609 910.829493,541.858658 L712.525325,740.162826 C711.744276,740.943875 710.477946,740.943875 709.696898,740.162826 L672.298806,702.764734 C671.517757,701.983686 671.517757,700.717356 672.298806,699.936307 L803.346224,568.888889 Z" id="Combined-Shape"></path>
        </g>
    </g>
</svg>