<?xml version="1.0" encoding="UTF-8"?>
<svg width="1024px" height="1024px" viewBox="0 0 1024 1024" version="1.1" xmlns="http://www.w3.org/2000/svg" xmlns:xlink="http://www.w3.org/1999/xlink">
    <!-- Generator: Sketch 48.2 (47327) - http://www.bohemiancoding.com/sketch -->
    <title>人事管理-默认</title>
    <desc>Created with Sketch.</desc>
    <defs></defs>
    <g id="Artboard" stroke="none" stroke-width="1" fill="none" fill-rule="evenodd">
        <g id="人事管理-默认" fill="#A9B3C2">
            <path d="M936.930319,696.321484 L856.613101,656.856672 L795.39571,689.832441 L862.367536,722.563339 L495.471304,920.254701 L132.819478,722.808209 L203.627594,690.771107 L142.614261,657.509658 L58.419942,696.280672 C48.9108406,701.014817 42.829913,710.687165 42.6666667,721.338991 C42.5034203,731.950006 48.2578551,741.7856 57.5628986,746.887049 L481.717797,977.839861 C485.962203,980.166122 490.655536,981.349658 495.389681,981.349658 C500.042203,981.349658 504.694725,980.206933 508.93913,977.921484 L937.542493,746.927861 C946.888348,741.908035 952.683594,732.072441 952.561159,721.461426 C952.397913,710.8096 946.398609,701.137252 936.930319,696.321484 L936.930319,696.321484 Z" id="Icon-4"></path>
            <path d="M936.930319,496.344672 L852.123826,453.288441 L790.947246,486.30502 L862.367536,522.586528 L495.471304,720.27789 L132.819478,522.831397 L209.014725,484.550122 L147.96058,451.288672 L58.419942,496.303861 C48.9108406,501.078817 42.829913,510.710354 42.6666667,521.36218 C42.5034203,531.973194 48.2578551,541.808788 57.5628986,546.910238 L481.717797,777.863049 C485.962203,780.18931 490.655536,781.372846 495.389681,781.372846 C500.042203,781.372846 504.694725,780.230122 508.93913,777.944672 L937.542493,546.951049 C946.888348,541.931223 952.683594,532.095629 952.561159,521.484614 C952.397913,510.832788 946.398609,501.160441 936.930319,496.344672 L936.930319,496.344672 Z" id="Icon-3"></path>
            <path d="M517.672812,71.0470493 L941.82771,286.450643 C951.296,291.266412 957.336116,300.897948 957.458551,311.590586 C957.580986,322.2016 951.785739,332.037194 942.439884,337.05702 L513.836522,568.009832 C509.592116,570.295281 504.939594,571.438006 500.287072,571.438006 C495.552928,571.438006 490.900406,570.25447 486.615188,567.96902 L62.4602899,336.975397 C53.1552464,331.914759 47.4008116,322.079165 47.564058,311.427339 C47.7681159,300.816325 53.8082319,291.143977 63.3173333,286.36902 L491.879884,70.9654261 C500.042203,66.9250783 509.592116,66.9250783 517.672812,71.0470493 Z M500.368696,510.383861 L867.264928,312.651687 L504.653913,128.509774 L137.71687,312.896557 L500.368696,510.383861 Z" id="Combined-Shape"></path>
        </g>
    </g>
</svg>