<?xml version="1.0" encoding="UTF-8"?>
<svg width="1024px" height="1024px" viewBox="0 0 1024 1024" version="1.1" xmlns="http://www.w3.org/2000/svg" xmlns:xlink="http://www.w3.org/1999/xlink">
    <!-- Generator: Sketch 48.2 (47327) - http://www.bohemiancoding.com/sketch -->
    <title>切换旧版</title>
    <desc>Created with Sketch.</desc>
    <defs></defs>
    <g id="Artboard" stroke="none" stroke-width="1" fill="none" fill-rule="evenodd" transform="translate(2.000000, 2.000000)">
        <g id="切换旧版" transform="translate(-24.000000, -2.000000)" fill="#FFFFFF" fill-rule="nonzero">
            <g id="litecoin" transform="translate(533.797552, 529.700483) rotate(-30.000000) translate(-533.797552, -529.700483) translate(138.933554, 146.029886)">
                <path d="M305.289593,414.746158 C309.042631,404.79874 320.384307,399.690956 330.621936,403.337605 C340.859566,406.984253 346.116366,418.004421 342.363328,427.951839 L285.006033,579.977233 C281.252996,589.924651 269.91132,595.032434 259.67369,591.385786 C249.436061,587.739137 244.179261,576.718969 247.932298,566.771551 L305.289593,414.746158 Z" id="Shape"></path>
                <path d="M505.056965,186.535978 C509.280626,176.768331 520.853832,172.176982 530.906446,176.280912 C540.959059,180.384843 545.684359,191.629978 541.460698,201.397625 L469.650378,367.466337 C465.426717,377.233984 453.853511,381.825333 443.800898,377.721403 C433.748284,373.617472 429.022984,362.372337 433.246645,352.60469 L505.056965,186.535978 Z" id="Shape-Copy"></path>
                <path d="M497.10061,736.779345 C675.114051,692.443475 790.626886,529.009937 766.875702,355.20857 C766.426738,351.642485 765.865163,348.074043 765.190741,344.502785 C763.222804,334.081996 770.321654,324.084173 781.046464,322.172022 C791.771275,320.259871 802.06078,327.157486 804.028717,337.578275 C804.844765,341.899483 805.525248,346.223506 806.044219,350.354031 C832.419522,543.349036 704.160437,724.816626 506.905009,773.944889 C309.774418,823.04206 105.0349,724.70165 27.9788052,540.803309 L27.1093645,536.659764 C25.2198961,527.655015 30.1682581,518.613201 38.9082006,515.100534 L316.280073,403.622105 C326.355993,399.572496 337.902773,404.226239 342.070528,414.016532 C346.238283,423.806825 341.448768,435.026283 331.372848,439.075892 L71.7313374,543.428318 C144.603419,697.292806 324.038243,779.882105 497.10061,736.779345 Z" id="Shape"></path>
                <path d="M312.244536,26.4242789 C143.496981,58.4997031 22.3635904,190.754611 19.7885829,344.643698 C19.5730994,357.009263 20.1250882,369.376139 21.442059,381.687324 C22.5693458,392.225323 14.6912261,401.656001 3.84578622,402.751332 C-6.9996537,403.846663 -16.7054664,396.191868 -17.8327533,385.653869 C-19.3137133,371.809694 -19.9345056,357.901329 -19.6923785,344.007073 C-16.806091,171.514791 118.088733,24.2349833 304.66371,-11.2290658 C490.865901,-46.6222559 679.756952,38.5980672 760.200301,195.502333 L761.329441,197.982954 C765.486536,207.115722 761.737479,217.819817 752.709951,222.592834 L460.885053,376.88593 C451.30732,381.94985 439.31815,378.51078 434.106492,369.204552 C428.894834,359.898324 432.434237,348.249017 442.01197,343.185097 L716.871975,197.861646 C640.987929,66.4166391 475.671419,-4.63979559 312.244536,26.4242789 Z" id="Shape"></path>
            </g>
        </g>
    </g>
</svg>