<?xml version="1.0" encoding="UTF-8"?>
<svg width="1024px" height="1024px" viewBox="0 0 1024 1024" version="1.1" xmlns="http://www.w3.org/2000/svg" xmlns:xlink="http://www.w3.org/1999/xlink">
    <!-- Generator: Sketch 48.2 (47327) - http://www.bohemiancoding.com/sketch -->
    <title>密保设置-点击</title>
    <desc>Created with Sketch.</desc>
    <defs></defs>
    <g id="Artboard" stroke="none" stroke-width="1" fill="none" fill-rule="evenodd">
        <g id="密保设置-点击" fill="#57A3F2">
            <path d="M647.717221,939.299014 L647.708066,939.299014 C631.176286,939.299014 615.104848,932.463193 604.728838,921.010871 C590.583775,905.505706 545.771024,865.183908 509.096654,865.183908 C472.668148,865.183908 427.171423,905.735877 414.10398,919.947637 C403.743663,931.206406 387.793849,937.924526 371.416388,937.924526 C363.615418,937.924526 356.259096,936.428414 349.537052,933.470192 L348.361349,932.958845 L236.872204,870.608623 L235.763198,869.833103 C215.467596,855.630498 207.749017,827.839949 217.796771,805.199479 C217.879162,805.025543 228.079928,781.474851 228.079928,759.998314 C228.079928,694.838958 175.07387,641.827668 109.904051,641.827668 L105.955831,641.827668 L105.230008,641.83813 C86.5678365,641.83813 71.3700026,625.250115 66.5115607,599.589957 C66.128378,597.536725 57,548.862069 57,510.512419 C57,472.162769 66.1244547,423.488112 66.5076373,421.42965 C71.4262375,395.437313 86.9562503,378.74729 105.9506,379.19717 L109.89882,379.19717 C175.063407,379.19717 228.074697,326.180649 228.074697,261.014754 C228.074697,239.548679 217.879162,216.00845 217.771923,215.774355 C207.728092,193.148271 215.497676,165.368184 235.880899,151.202197 L237.040909,150.399213 L354.701517,85.7760511 L355.926917,85.2607816 C362.548261,82.435954 369.807806,81 377.489768,81 C393.822764,81 409.811811,87.5794943 420.264981,98.5832439 C434.190335,113.169032 478.210564,151.089727 513.842626,151.089727 C549.133354,151.089727 592.872409,113.924935 606.757221,99.5954738 C617.147617,88.8062018 633.025502,82.3431009 649.204179,82.3431009 C657.045691,82.3431009 664.438631,83.8248276 671.165905,86.7516628 L672.361226,87.2734713 L786.006917,150.404444 L787.125078,151.186503 C807.452066,165.378646 815.191571,193.169195 805.133354,215.83059 C805.056194,215.999295 794.85412,239.548679 794.85412,261.019985 C794.85412,326.180649 847.86541,379.202401 913.029997,379.202401 L916.984756,379.202401 C935.95295,378.777369 951.498656,395.442544 956.412026,421.434881 C956.800439,423.488112 965.924894,472.162769 965.924894,510.51765 C965.924894,548.862069 956.800439,597.541957 956.412026,599.595188 C951.498656,625.582294 935.95295,642.216082 916.974294,641.832899 L913.029997,641.832899 C847.870641,641.832899 794.85412,694.838958 794.85412,760.003545 C794.85412,781.474851 805.056194,805.01508 805.152971,805.250483 C815.191571,827.855642 807.441604,855.64096 787.094999,869.822641 L785.950682,870.608623 L670.394309,934.486345 L669.193757,935.002922 C662.584184,937.857829 655.349487,939.299014 647.717221,939.299014 Z M644.197957,884.862232 C644.718457,885.199642 646.175336,885.776378 647.708066,885.776378 L647.875464,885.771147 L755.840112,826.097972 C753.240225,820.038978 741.317098,790.660771 741.317098,760.008777 C741.317098,668.356199 813.51106,593.235402 904.019321,588.535203 C905.32188,581.342355 912.391796,540.881931 912.391796,510.522881 C912.391796,480.167755 905.32188,439.717793 904.019321,432.514483 C813.51106,427.81036 741.317098,352.698718 741.317098,261.035678 C741.317098,230.343142 753.270304,200.917854 755.855806,194.915096 L649.643596,135.901047 C649.525895,135.897124 649.372884,135.886662 649.204179,135.886662 C647.395504,135.886662 645.704531,136.545788 645.138258,136.923739 C643.354432,138.757262 627.963045,154.364434 605.848307,169.919295 C573.113001,192.95341 542.149752,204.626748 513.842626,204.626748 C485.239939,204.626748 454.037364,192.719315 421.096736,169.235321 C398.849911,153.37836 383.380056,137.465165 381.597538,135.605487 C381.031264,135.222304 379.319367,134.542253 377.489768,134.542253 L377.111816,134.552715 L267.099167,194.976562 C269.735673,201.107484 281.613027,230.435995 281.613027,261.030447 C281.613027,352.683024 209.413834,427.799898 118.905573,432.50402 C117.608245,439.7021 110.533098,480.157292 110.533098,510.51765 C110.533098,540.867545 117.608245,581.316199 118.910805,588.529972 C209.419065,593.230171 281.613027,668.340506 281.613027,759.998314 C281.613027,790.752317 269.612741,820.233839 267.058626,826.159438 L371.180986,884.382273 L371.411157,884.387504 C372.933425,884.387504 374.37461,883.830386 374.884649,883.498207 C376.826718,881.403126 392.38681,864.948506 414.777492,848.535734 C448.166692,824.065665 479.901538,811.656041 509.087499,811.656041 C538.553328,811.656041 570.527499,824.294529 604.10633,849.240633 C626.644792,865.971198 642.257195,882.742304 644.197957,884.862232 Z" id="Fill-1"></path>
            <path d="M511.832858,353 C595.523106,353 668.639561,426.13064 668.639561,509.822396 C668.639561,593.513821 595.523436,666.623867 511.832858,666.623867 C428.136401,666.623867 355,593.509251 355,509.822396 C355,426.137509 428.143589,353 511.832858,353 Z M511.832858,409.888889 C459.561396,409.888889 411.888889,457.557434 411.888889,509.822396 C411.888889,562.086591 459.551474,609.734978 511.832858,609.734978 C564.105629,609.734978 611.750672,562.093897 611.750672,509.822396 C611.750672,457.547036 564.10177,409.888889 511.832858,409.888889 Z" id="Fill-3" fill-rule="nonzero"></path>
        </g>
    </g>
</svg>